<svg xmlns="http://www.w3.org/2000/svg" width="2881" height="1787" viewBox="0 0 2881 1787"><defs><path id="c" d="M23.767 384.424c144.507-99.172 322.575-168.282 430.559-283.565C519.791 30.97 602.311 2.083 691.293 2.083c201.023 0 435 147.436 579.64 302.616 72.685 77.976 121.977 175.715 191.358 256.752 122.419 142.986 308.607 225.786 496.457 225.786a626.5 626.5 0 0 0 101.164-8.166c184.834-30.254 354.008-138.433 540.242-155.151q23.484-2.112 47-2.1c178.772 0 354.7 90.119 457.2 237.426 58.691 84.333 94.219 184.713 159.642 263.7 84.721 102.288 210.384 158.317 331.6 211.08 69.139 30.1 142.528 60.715 216.941 60.715a250.5 250.5 0 0 0 47.172-4.374c140.857-26.954 229.969-173.565 360.719-234.651 41.881-19.568 87.678-29.1 133.367-29.1 72.648 0 145.021 24.109 200.924 70.335 86.324 71.381 134.208 188.6 234.269 238.551 34.432 17.189 70.426 24.542 107.1 24.542 111.242 0 228.694-67.665 327.688-133.6-98.994 65.94-216.446 133.6-327.688 133.6-36.669 0-72.663-7.353-107.1-24.542-100.061-49.955-147.945-167.17-234.269-238.551-55.9-46.226-128.276-70.335-200.924-70.335-45.688 0-91.486 9.532-133.367 29.1-130.75 61.087-219.862 207.7-360.719 234.651a250.5 250.5 0 0 1-47.172 4.374c-74.413 0-147.8-30.62-216.941-60.715-121.215-52.763-246.879-108.792-331.6-211.08-65.423-78.988-100.951-179.368-159.642-263.7-102.509-147.307-278.432-237.426-457.2-237.426q-23.49 0-47 2.1c-186.234 16.718-355.408 124.9-540.242 155.151a626.5 626.5 0 0 1-101.164 8.166c-187.85 0-374.038-82.8-496.457-225.786-69.381-81.038-118.673-178.777-191.358-256.752C1126.289 149.519 892.317 2.083 691.293 2.083c-88.982 0-171.5 28.887-236.968 98.776C346.342 216.142 168.274 285.252 23.767 384.424"/><path id="d" d="M23.259 415.874c143.62-99.31 320.417-169.824 428.942-283.819 58.933-61.957 131.338-91.232 209.714-96.069q11.961-.718 24.08-.712c156.013 0 330.794 87.778 469.281 199.815a1099 1099 0 0 1 111.529 103.467c72.6 77.75 122.381 174.79 191.916 255.29 73.1 84.612 168.437 148.111 273.3 185.584a662.9 662.9 0 0 0 222.6 38.882 630 630 0 0 0 100.881-8.074c184.384-29.9 353.512-136.808 539.229-154.206q24.9-2.325 49.83-2.316 11.96 0 23.892.525c119.032 5.228 235.431 49.313 328.1 123.794a535.2 535.2 0 0 1 102.284 108.662c28.729 40.76 52.03 85.333 75.935 129.393 25.2 46.439 51.079 92.323 84.657 132.7 59.378 71.4 138.412 120.594 221.828 162.046 35.6 17.693 72.005 33.982 108.033 49.963 69.54 30.816 143.378 62.107 218.316 62.107a249.6 249.6 0 0 0 43.96-3.812c120.415-21.33 204.007-129.451 307.916-198.2a412 412 0 0 1 53.242-30.179 323.5 323.5 0 0 1 136.35-29.75c71.2 0 141.874 22.809 197.023 67.011 20.805 16.647 39.453 35.949 57.174 56.4 56.05 64.736 102.334 140.928 177.873 179.381 34.016 17.289 69.51 25.092 105.638 25.75q2.711.056 5.432.054c108.759 0 223.058-63.178 319.856-124.731-96.8 61.553-211.1 124.731-319.856 124.731q-2.718 0-5.432-.054c-36.128-.658-71.622-8.461-105.638-25.75-75.538-38.452-121.822-114.645-177.873-179.381-17.722-20.455-36.369-39.756-57.174-56.4-55.15-44.2-125.826-67.011-197.023-67.011a323.5 323.5 0 0 0-136.35 29.75 412 412 0 0 0-53.242 30.179c-103.909 68.752-187.5 176.873-307.916 198.2a249.6 249.6 0 0 1-43.96 3.812c-74.938 0-148.777-31.291-218.316-62.107-36.028-15.981-72.43-32.27-108.033-49.963-83.417-41.452-162.45-90.644-221.828-162.046-33.578-40.373-59.462-86.258-84.657-132.7-23.9-44.06-47.205-88.632-75.935-129.393a535.2 535.2 0 0 0-102.284-108.662c-92.673-74.48-209.072-118.565-328.1-123.794q-11.929-.525-23.892-.525-24.9 0-49.83 2.316c-185.717 17.4-354.845 124.306-539.229 154.206a630 630 0 0 1-100.881 8.074 662.9 662.9 0 0 1-222.6-38.882c-104.867-37.473-200.207-100.972-273.3-185.584-69.535-80.5-119.315-177.539-191.916-255.29a1099 1099 0 0 0-111.529-103.467C1016.789 123.052 842.008 35.274 685.995 35.274q-12.117 0-24.08.712c-78.376 4.837-150.781 34.112-209.714 96.069C343.676 246.05 166.879 316.564 23.259 415.874"/><path id="e" d="M22.755 447.318c142.732-99.439 318.264-171.361 427.33-284.06 59.128-61.219 131.476-90.061 209.689-94.294q10.348-.525 20.817-.525c157.064 0 332.008 87.87 470.874 200.661a1120 1120 0 0 1 111.212 103.317c72.522 77.526 122.79 173.869 192.479 253.828 73.285 84.066 168.441 147.252 273.146 184.517a663.9 663.9 0 0 0 222.2 38.627 634.6 634.6 0 0 0 100.61-7.982c183.93-29.545 353.016-135.188 538.221-153.26q26.377-2.568 52.775-2.554 10.367 0 20.722.387c118.694 4.445 234.989 46.955 327.875 120.49a530.8 530.8 0 0 1 102.638 107.683c28.883 40.456 52.4 84.745 76.5 128.518 25.4 46.143 51.463 91.736 85.045 131.955 59.379 71.11 137.95 120.527 220.808 162.388 35.366 17.868 71.518 34.365 107.317 50.555 69.935 31.549 144.236 63.524 219.708 63.524a249 249 0 0 0 40.727-3.279c119.9-19.518 204.285-124.414 308.361-192.221a427 427 0 0 1 53.237-29.891 331.8 331.8 0 0 1 139.466-30.441c69.689 0 138.641 21.534 193 63.728 20.876 16.16 39.661 34.982 57.554 55.033 56.562 63.457 103.226 139.041 178.264 177.981 33.752 17.472 68.914 25.713 104.671 26.963q5.292.2 10.611.2c106.184 0 217.262-58.745 311.786-115.945-94.523 57.2-205.6 115.945-311.786 115.945q-5.313 0-10.611-.2c-35.758-1.25-70.919-9.49-104.671-26.963-75.039-38.94-121.7-114.524-178.264-177.981-17.893-20.051-36.678-38.873-57.554-55.033-54.354-42.194-123.306-63.728-193-63.728a331.8 331.8 0 0 0-139.466 30.441 427 427 0 0 0-53.237 29.891c-104.076 67.806-188.462 172.7-308.361 192.221a249 249 0 0 1-40.727 3.279c-75.472 0-149.773-31.974-219.708-63.524-35.8-16.189-71.951-32.687-107.317-50.555-82.858-41.86-161.429-91.278-220.808-162.388-33.582-40.219-59.649-85.812-85.045-131.955-24.092-43.772-47.614-88.061-76.5-128.518a530.8 530.8 0 0 0-102.638-107.683c-92.886-73.535-209.18-116.045-327.875-120.49q-10.348-.387-20.722-.387-26.365 0-52.775 2.554c-185.2 18.072-354.291 123.714-538.221 153.26a634.6 634.6 0 0 1-100.61 7.982 663.9 663.9 0 0 1-222.2-38.627c-104.7-37.265-199.861-100.451-273.146-184.517-69.689-79.959-119.956-176.3-192.479-253.828A1120 1120 0 0 0 1151.465 269.1C1012.599 156.309 837.655 68.439 680.591 68.439q-10.467 0-20.818.525c-78.212 4.233-150.56 33.075-209.688 94.294-109.066 112.699-284.598 184.621-427.33 284.06"/><path id="f" d="M22.247 478.768c141.841-99.568 316.11-172.9 425.714-284.31 59.328-60.47 131.613-89.066 209.672-92.515q9.092-.4 18.264-.4c157.938 0 332.727 88.191 471.75 201.569a1140 1140 0 0 1 110.9 103.167c72.443 77.3 123.2 172.948 193.041 252.37 73.476 83.52 168.441 146.394 272.987 183.443a665.3 665.3 0 0 0 221.824 38.373 639 639 0 0 0 100.31-7.882c183.48-29.2 352.521-133.567 537.209-152.314a553 553 0 0 1 55.846-2.816q8.724 0 17.43.271c118.357 3.662 234.547 44.6 327.641 117.186a526.6 526.6 0 0 1 103 106.7c29.037 40.161 52.78 84.162 77.059 127.651 25.6 45.843 51.846 91.148 85.437 131.209 59.37 70.818 137.487 120.465 219.779 162.725 35.132 18.047 71.035 34.757 106.6 51.146 70.347 32.308 145.119 64.973 221.146 64.973a249 249 0 0 0 37.452-2.775c119.378-17.7 204.565-119.374 308.8-186.242a446 446 0 0 1 53.237-29.6 340.6 340.6 0 0 1 142.715-31.17c68.131 0 135.321 20.293 188.829 60.487 20.955 15.664 39.877 34.012 57.946 53.658 57.065 62.174 104.109 137.15 178.651 176.585 33.487 17.651 68.323 26.258 103.705 28.17q7.762.419 15.556.417c103.676 0 211.63-54.25 303.95-107.233-92.32 52.984-200.274 107.233-303.95 107.233q-7.792 0-15.556-.417c-35.382-1.912-70.218-10.519-103.705-28.17-74.542-39.436-121.585-114.412-178.651-176.585-18.069-19.647-36.991-37.994-57.946-53.658-53.508-40.194-120.7-60.487-188.829-60.487a340.6 340.6 0 0 0-142.715 31.17 446 446 0 0 0-53.237 29.6c-104.234 66.869-189.421 168.541-308.8 186.242a249 249 0 0 1-37.452 2.775c-76.026 0-150.8-32.666-221.146-64.973-35.569-16.389-71.472-33.1-106.6-51.146-82.292-42.26-160.408-91.907-219.779-162.725-33.591-40.061-59.841-85.366-85.437-131.209-24.279-43.489-48.021-87.491-77.059-127.651a526.6 526.6 0 0 0-103-106.7c-93.094-72.589-209.285-113.524-327.641-117.186q-8.7-.269-17.43-.271a553 553 0 0 0-55.846 2.816c-184.688 18.747-353.729 123.118-537.209 152.314a639 639 0 0 1-100.31 7.882 665.3 665.3 0 0 1-221.824-38.373c-104.546-37.048-199.511-99.922-272.987-183.443-69.843-79.421-120.6-175.069-193.041-252.37a1140 1140 0 0 0-110.9-103.167c-139.023-113.378-313.812-201.569-471.751-201.569q-9.174 0-18.264.4c-78.058 3.449-150.343 32.045-209.671 92.515C338.357 305.87 164.088 379.2 22.247 478.768"/><path id="g" d="M21.742 510.217c140.949-99.7 313.948-174.436 424.1-284.56 59.521-59.724 131.748-87.945 209.648-90.736q7.512-.271 15.073-.271c159.038 0 333.911 88.357 473.273 202.473a1164 1164 0 0 1 110.583 103.013c72.355 77.08 123.606 172.028 193.6 250.911 73.659 82.975 168.441 145.536 272.825 182.376a666.4 666.4 0 0 0 221.424 38.119 643 643 0 0 0 100.039-7.791c183.026-28.841 352.021-131.942 536.192-151.368a564 564 0 0 1 59.062-3.1q7.005 0 13.994.175c118.019 2.879 234.11 42.244 327.416 113.887a522.3 522.3 0 0 1 103.346 105.717c29.2 39.86 53.159 83.579 77.626 126.781 25.8 45.543 52.225 90.561 85.824 130.463 59.366 70.527 137.025 120.4 218.758 163.067 34.895 18.226 70.543 35.145 105.888 51.734 70.86 33.124 146.2 66.406 222.916 66.406a251 251 0 0 0 33.836-2.254c118.828-16.16 204.852-114.337 309.244-180.26a464.5 464.5 0 0 1 53.233-29.312 349.7 349.7 0 0 1 146.111-31.945c66.515 0 131.909 19.08 184.521 57.287 21.035 15.177 40.09 33.045 58.333 52.292 57.57 60.891 105 135.258 179.035 175.186 33.228 17.831 67.736 26.854 102.742 29.379q10.548.762 21.164.75c100.943 0 205.535-49.88 295.455-98.639-89.919 48.759-194.511 98.639-295.455 98.639q-10.611 0-21.164-.75c-35.006-2.525-69.514-11.548-102.742-29.379-74.039-39.927-121.465-114.295-179.035-175.186-18.243-19.247-37.3-37.115-58.333-52.292-52.612-38.207-118.006-57.287-184.521-57.287a349.7 349.7 0 0 0-146.111 31.945 464.5 464.5 0 0 0-53.233 29.312c-104.392 65.923-190.416 164.1-309.244 180.26a251 251 0 0 1-33.836 2.254c-76.718 0-152.056-33.282-222.916-66.406-35.344-16.589-70.993-33.507-105.888-51.734-81.733-42.669-159.392-92.54-218.758-163.067-33.6-39.9-60.029-84.92-85.824-130.463-24.467-43.2-48.43-86.92-77.626-126.781A522.3 522.3 0 0 0 2978.97 863.35c-93.306-71.643-209.4-111.008-327.416-113.887q-6.987-.175-13.994-.175a564 564 0 0 0-59.062 3.1c-184.171 19.422-353.166 122.523-536.192 151.362a643 643 0 0 1-100.039 7.791 666.4 666.4 0 0 1-221.425-38.117c-104.384-36.84-199.165-99.4-272.825-182.376-69.993-78.884-121.244-173.832-193.6-250.911a1164 1164 0 0 0-110.583-103.013C1004.474 223.007 829.601 134.65 670.563 134.65q-7.561 0-15.073.271c-77.9 2.791-150.127 31.012-209.648 90.736-110.152 110.125-283.151 184.859-424.1 284.56"/><path id="h" d="M21.234 541.663c140.066-99.83 311.8-175.973 422.485-284.806 59.724-58.983 131.892-86.824 209.626-88.966q5.868-.158 11.769-.158c160.2 0 335.186 88.524 474.906 203.4a1187 1187 0 0 1 110.266 102.863c72.281 76.855 124.014 171.107 194.166 249.453 73.851 82.425 168.445 144.673 272.666 181.305a667.6 667.6 0 0 0 221.037 37.865 647.4 647.4 0 0 0 99.751-7.695c182.576-28.487 351.525-130.322 535.18-150.427a575 575 0 0 1 62.378-3.387q5.23 0 10.457.092c117.682 2.1 233.664 39.886 327.183 110.583a518.3 518.3 0 0 1 103.7 104.734c29.35 39.565 53.533 83 78.188 125.91 26 45.243 52.617 89.978 86.212 129.722 59.37 70.235 136.566 120.332 217.737 163.408 34.661 18.4 70.061 35.532 105.172 52.325 71.322 33.936 147.182 67.918 224.528 67.918a251 251 0 0 0 30.391-1.816c118.3-14.406 205.123-109.3 309.682-174.281a486 486 0 0 1 53.233-29.021 359.4 359.4 0 0 1 149.656-32.758c64.835 0 128.4 17.9 180.064 54.125 21.1 14.69 40.3 32.078 58.712 50.922 58.082 59.611 105.883 133.371 179.43 173.79a258.4 258.4 0 0 0 101.776 30.587q13.5 1.225 27.108 1.208c98.077 0 199.208-45.576 286.614-90.169-87.407 44.593-188.538 90.169-286.614 90.169q-13.6 0-27.108-1.208a258.4 258.4 0 0 1-101.776-30.587c-73.547-40.419-121.348-114.178-179.43-173.79-18.415-18.843-37.607-36.232-58.712-50.922-51.667-36.228-115.229-54.125-180.064-54.125a359.4 359.4 0 0 0-149.656 32.758 486 486 0 0 0-53.233 29.021c-104.559 64.986-191.383 159.875-309.682 174.281a251 251 0 0 1-30.391 1.816c-77.346 0-153.206-33.982-224.528-67.918-35.111-16.793-70.51-33.924-105.172-52.325-81.171-43.077-158.367-93.173-217.737-163.408-33.595-39.744-60.216-84.479-86.212-129.722-24.655-42.914-48.838-86.345-78.188-125.91a518.3 518.3 0 0 0-103.7-104.734c-93.519-70.7-209.5-108.487-327.183-110.583q-5.224-.094-10.457-.092a575 575 0 0 0-62.378 3.387c-183.655 20.105-352.6 121.94-535.18 150.427a647.4 647.4 0 0 1-99.751 7.695 667.6 667.6 0 0 1-221.037-37.865c-104.221-36.632-198.815-98.881-272.666-181.305-70.152-78.346-121.885-172.6-194.166-249.453a1187 1187 0 0 0-110.266-102.863c-139.72-114.876-314.701-203.4-474.906-203.4q-5.9 0-11.769.158c-77.734 2.142-149.902 29.983-209.626 88.966C333.034 365.69 161.3 441.833 21.234 541.663"/><path id="i" d="M20.726 573.112c139.179-99.964 309.644-177.51 420.869-285.056 59.924-58.237 132.031-85.7 209.605-87.187q4.168-.079 8.349-.079c161.442 0 336.557 88.686 476.656 204.352a1212 1212 0 0 1 109.95 102.713c72.2 76.63 124.423 170.186 194.728 247.991 74.039 81.883 168.445 143.815 272.508 180.235a668.8 668.8 0 0 0 220.653 37.615 652.4 652.4 0 0 0 99.46-7.6c182.122-28.133 351.025-128.7 534.168-149.481a586 586 0 0 1 65.894-3.708q3.362 0 6.72.038c117.344 1.312 233.222 37.528 326.95 107.279a514.1 514.1 0 0 1 104.059 103.755c29.5 39.265 53.9 82.408 78.75 125.039 26.2 44.943 53 89.391 86.6 128.972 59.37 69.947 136.1 120.269 216.717 163.75 34.424 18.58 69.568 35.924 104.455 52.917 71.793 34.77 148.193 69.477 226.186 69.477a251 251 0 0 0 26.892-1.421c117.782-12.652 205.406-104.259 310.127-168.3a509 509 0 0 1 53.229-28.733 368.8 368.8 0 0 1 153.123-33.553c63.145 0 124.9 16.756 175.681 50.95 21.151 14.239 40.51 31.1 59.1 49.547 58.591 58.333 106.771 131.48 179.819 172.39a264.1 264.1 0 0 0 100.81 31.8 307 307 0 0 0 33.457 1.787c95.069 0 192.6-41.335 277.378-81.821-84.774 40.486-182.31 81.821-277.378 81.821a307 307 0 0 1-33.457-1.787 264.1 264.1 0 0 1-100.81-31.8c-73.047-40.911-121.228-114.057-179.819-172.39-18.589-18.443-37.948-35.307-59.1-49.547-50.784-34.195-112.537-50.95-175.681-50.95a368.8 368.8 0 0 0-153.123 33.553 509 509 0 0 0-53.229 28.733c-104.722 64.04-192.346 155.647-310.127 168.3a251 251 0 0 1-26.892 1.421c-77.992 0-154.393-34.707-226.186-69.477-34.887-16.993-70.031-34.337-104.455-52.917-80.613-43.481-157.346-93.8-216.717-163.75-33.6-39.581-60.4-84.029-86.6-128.972-24.846-42.631-49.246-85.774-78.75-125.039a514.1 514.1 0 0 0-104.059-103.755c-93.727-69.752-209.605-105.967-326.95-107.279q-3.356-.037-6.72-.038a586 586 0 0 0-65.894 3.708c-183.146 20.781-352.046 121.345-534.168 149.475a652.4 652.4 0 0 1-99.46 7.6 668.8 668.8 0 0 1-220.653-37.615c-104.065-36.413-198.465-98.346-272.509-180.229-70.306-77.8-122.527-171.361-194.728-247.991a1212 1212 0 0 0-109.95-102.713C996.105 289.476 820.99 200.79 659.549 200.79q-4.18 0-8.349.079c-77.574 1.487-149.681 28.95-209.605 87.187C330.37 395.602 159.905 473.148 20.726 573.112"/><path id="j" d="M20.222 604.561c138.287-100.093 307.486-179.052 419.256-285.3 60.12-57.497 132.176-84.577 209.581-85.414q2.393-.025 4.795-.025c162.768 0 338.027 88.853 478.534 205.335a1237 1237 0 0 1 109.642 102.559c72.118 76.4 124.827 169.261 195.286 246.529 74.226 81.338 168.449 142.957 272.35 179.168a670.1 670.1 0 0 0 220.256 37.357 657 657 0 0 0 99.185-7.507c181.673-27.779 350.53-127.076 533.155-148.535a597 597 0 0 1 69.485-4.053q1.454-.002 2.908.008c117.007.529 232.781 35.17 326.72 103.98a510 510 0 0 1 104.413 102.768c29.658 38.969 54.279 81.825 79.313 124.168 26.4 44.647 53.384 88.807 86.987 128.23 59.365 69.656 135.646 120.2 215.7 164.091 34.191 18.755 69.081 36.311 103.738 53.508 72.272 35.624 149.231 71.077 227.9 71.077q11.642 0 23.338-1.071c117.261-10.9 205.685-99.222 310.564-162.321a536 536 0 0 1 53.23-28.442 379.2 379.2 0 0 1 156.938-34.461c61.357 0 121.215 15.639 170.953 47.884 21.222 13.76 40.718 30.137 59.482 48.176 59.1 57.049 107.659 129.593 180.21 170.995a270.5 270.5 0 0 0 99.843 33.007 315 315 0 0 0 40.248 2.516c91.895 0 185.692-37.182 267.7-73.622-82 36.44-175.8 73.622-267.7 73.622a315 315 0 0 1-40.248-2.516 270.5 270.5 0 0 1-99.843-33.007c-72.551-41.4-121.107-113.945-180.21-170.995-18.764-18.039-38.26-34.416-59.482-48.176-49.738-32.245-109.6-47.884-170.953-47.884a379.2 379.2 0 0 0-156.938 34.461 536 536 0 0 0-53.23 28.442c-104.879 63.1-193.3 151.423-310.564 162.321q-11.692 1.087-23.338 1.071c-78.671 0-155.63-35.453-227.9-71.077-34.657-17.2-69.547-34.753-103.738-53.508-80.05-43.889-156.33-94.436-215.7-164.091-33.6-39.423-60.591-83.583-86.987-128.23-25.034-42.344-49.655-85.2-79.313-124.168a510 510 0 0 0-104.415-102.769c-93.94-68.81-209.713-103.451-326.72-103.98-.97 0-1.937-.008-2.908-.008a597 597 0 0 0-69.485 4.053c-182.626 21.459-351.483 120.757-533.155 148.535a657 657 0 0 1-99.185 7.507 670.1 670.1 0 0 1-220.254-37.357c-103.9-36.211-198.124-97.831-272.35-179.168-70.46-77.267-123.169-170.124-195.286-246.529a1237 1237 0 0 0-109.642-102.559C991.881 322.675 816.622 233.822 653.854 233.822q-2.4 0-4.8.025c-77.4.837-149.46 27.917-209.58 85.412-111.766 106.25-280.965 185.209-419.252 285.302"/><path id="k" d="M19.714 636.006c137.4-100.226 305.332-180.593 417.64-285.552 59.653-56.12 130.734-83.641 207.006-83.641.854 0 1.7 0 2.558.008 164.479 1.316 340.4 88.753 481.655 206.343a1264 1264 0 0 1 109.325 102.409c72.039 76.18 125.239 168.341 195.849 245.066a668.84 668.84 0 0 0 272.191 178.1 671.3 671.3 0 0 0 219.876 37.11 662 662 0 0 0 98.893-7.415c181.218-27.429 350.029-125.456 532.139-147.594a608 608 0 0 1 72.176-4.416h1.354c116.207 0 231.344 33.074 325.134 100.672a506 506 0 0 1 104.766 101.788c29.813 38.669 54.655 81.238 79.876 123.3 26.6 44.343 53.767 88.22 87.378 127.484 59.362 69.364 135.183 120.14 214.671 164.429 33.953 18.935 68.594 36.7 103.022 54.1 72.776 36.511 150.3 72.726 229.668 72.726q9.849 0 19.73-.766c116.749-9.14 205.964-94.181 311.01-156.339a563 563 0 0 1 53.226-28.154c51.05-23.309 106.642-35.415 160.913-35.415 59.512 0 117.436 14.556 166.062 44.868 21.3 13.273 40.935 29.166 59.87 46.8 59.611 55.771 108.545 127.705 180.6 169.6a277.5 277.5 0 0 0 98.88 34.216 323 323 0 0 0 47.555 3.412c88.524 0 178.423-33.112 257.5-65.59-79.075 32.478-168.974 65.59-257.5 65.59a323 323 0 0 1-47.555-3.412 277.5 277.5 0 0 1-98.88-34.216c-72.051-41.894-120.986-113.828-180.6-169.6-18.936-17.635-38.574-33.528-59.87-46.8-48.626-30.312-106.55-44.868-166.062-44.868-54.271 0-109.862 12.106-160.913 35.415a563 563 0 0 0-53.226 28.149c-105.046 62.157-194.261 147.2-311.01 156.339q-9.886.775-19.73.766c-79.367 0-156.892-36.215-229.668-72.726-34.428-17.4-69.069-35.165-103.022-54.1-79.488-44.289-155.309-95.064-214.671-164.429-33.612-39.265-60.782-83.141-87.378-127.484-25.221-42.06-50.063-84.629-79.876-123.3a506 506 0 0 0-104.766-101.788c-93.79-67.6-208.926-100.672-325.134-100.672h-1.354a608 608 0 0 0-72.176 4.416c-182.11 22.138-350.921 120.165-532.139 147.594a662 662 0 0 1-98.893 7.415 671.3 671.3 0 0 1-219.874-37.107 668.84 668.84 0 0 1-272.191-178.1c-70.61-76.726-123.81-168.887-195.849-245.066a1264 1264 0 0 0-109.325-102.409C987.314 355.574 811.396 268.138 646.914 266.821q-1.275-.01-2.554-.008c-76.272 0-147.353 27.521-207.006 83.641-112.308 104.959-280.24 185.326-417.64 285.552"/><path id="l" d="M19.205 667.456c136.512-100.36 303.178-182.126 416.028-285.798 60.003-55.533 131.246-81.862 207.58-81.862h1.958c164.862.971 339.356 89.82 479.984 207.376a1294 1294 0 0 1 109.009 102.264c71.96 75.955 125.647 167.42 196.411 243.608a671.66 671.66 0 0 0 272.03 177.027 672.7 672.7 0 0 0 219.491 36.853 667 667 0 0 0 98.6-7.32c180.768-27.075 349.534-123.831 531.126-146.644a620 620 0 0 1 71.956-4.8q2.793-.025 5.583-.025c114.437 0 227.823 31.545 320.671 97.393a502.1 502.1 0 0 1 105.126 100.805c29.966 38.373 55.029 80.654 80.437 122.431 26.8 44.043 54.15 87.632 87.766 126.739 59.362 69.073 134.721 120.073 213.65 164.771 33.716 19.11 68.106 37.086 102.3 54.692 73.289 37.415 151.414 74.418 231.506 74.418q8.017 0 16.056-.508c116.232-7.378 206.243-89.144 311.448-150.36a598 598 0 0 1 53.225-27.863c52.451-23.88 109.517-36.436 165.054-36.436 57.6 0 113.558 13.51 161.009 41.914 21.368 12.79 41.147 28.2 60.253 45.43 60.12 54.492 109.345 125.964 180.989 168.2a283.4 283.4 0 0 0 97.915 35.424 333.4 333.4 0 0 0 55.462 4.487c84.929 0 170.741-29.133 246.7-57.737-75.958 28.6-161.771 57.737-246.7 57.737a333.4 333.4 0 0 1-55.462-4.487 283.4 283.4 0 0 1-97.915-35.424c-71.644-42.24-120.869-113.712-180.989-168.2-19.106-17.231-38.885-32.641-60.253-45.43-47.451-28.4-103.41-41.914-161.009-41.914-55.537 0-112.6 12.556-165.054 36.436a598 598 0 0 0-53.225 27.863c-105.205 61.216-195.216 142.982-311.448 150.36q-8.036.512-16.056.508c-80.092 0-158.217-37-231.506-74.418-34.2-17.605-68.589-35.582-102.3-54.692-78.929-44.7-154.289-95.7-213.65-164.771-33.615-39.107-60.97-82.7-87.766-126.739-25.408-41.777-50.471-84.058-80.437-122.431a502.1 502.1 0 0 0-105.126-100.805c-92.848-65.848-206.235-97.393-320.671-97.393q-2.787 0-5.583.025a620 620 0 0 0-71.956 4.8c-181.587 22.813-350.353 119.569-531.117 146.644a667 667 0 0 1-98.6 7.32 672.7 672.7 0 0 1-219.5-36.853 671.66 671.66 0 0 1-272.03-177.027c-70.764-76.188-124.452-167.653-196.411-243.608a1294 1294 0 0 0-109.008-102.259C984.127 389.62 809.633 300.771 644.771 299.796h-1.958c-76.334 0-147.577 26.329-207.58 81.862C322.383 485.33 155.717 567.096 19.205 667.456"/><path id="m" d="M18.701 698.905c135.625-100.488 301.025-183.66 414.411-286.047 59.483-54.142 129.697-80.113 204.844-80.113 1.558 0 3.112.012 4.674.033 165.241 2.35 338.315 90.89 478.314 208.41a1325 1325 0 0 1 108.7 102.105c71.876 75.734 126.051 166.5 196.974 242.15a672.76 672.76 0 0 0 490.966 212.555 672 672 0 0 0 98.322-7.224c180.318-26.717 349.038-122.206 530.115-145.7a633 633 0 0 1 71.735-5.17q4.987-.081 9.978-.079c112.62 0 224.186 30.066 316.047 94.148a498.2 498.2 0 0 1 105.48 99.822c30.12 38.069 55.4 80.067 81 121.556 27 43.747 54.533 87.049 88.153 126 59.362 68.781 134.263 120.006 212.626 165.108 33.482 19.289 67.623 37.478 101.593 55.283 73.813 38.352 152.547 76.159 233.393 76.159q6.155 0 12.327-.3c115.724-5.612 206.527-84.1 311.894-144.378 17.3-9.915 34.965-19.293 53.22-27.575 53.909-24.471 112.508-37.519 169.353-37.519 55.633 0 109.583 12.5 155.8 39.023 21.438 12.31 41.356 27.233 60.637 44.06 60.628 53.213 110.225 124.085 181.376 166.808a291.6 291.6 0 0 0 96.952 36.632 344.6 344.6 0 0 0 64.036 5.77c81.088 0 162.6-25.263 235.235-50.092-72.639 24.829-154.147 50.092-235.235 50.092a344.6 344.6 0 0 1-64.036-5.77 291.6 291.6 0 0 1-96.952-36.632c-71.151-42.722-120.748-113.595-181.376-166.808-19.28-16.826-39.2-31.749-60.637-44.06-46.213-26.525-100.164-39.023-155.8-39.023-56.845 0-115.444 13.048-169.353 37.519-18.255 8.282-35.923 17.66-53.22 27.575-105.367 60.274-196.17 138.766-311.894 144.378q-6.174.3-12.327.3c-80.846 0-159.58-37.807-233.393-76.159-33.97-17.806-68.11-35.994-101.593-55.283-78.363-45.1-153.264-96.327-212.626-165.108-33.62-38.948-61.157-82.25-88.153-126-25.6-41.489-50.88-83.487-81-121.556a498.2 498.2 0 0 0-105.48-99.822c-91.861-64.082-203.428-94.148-316.047-94.148q-4.987 0-9.978.079a633 633 0 0 0-71.735 5.17c-181.076 23.492-349.8 118.982-530.115 145.7a672 672 0 0 1-98.322 7.224 672.76 672.76 0 0 1-490.971-212.553c-70.922-75.651-125.1-166.416-196.974-242.15a1325 1325 0 0 0-108.7-102.105C980.945 423.668 807.871 335.128 642.63 332.778a347 347 0 0 0-4.674-.033c-75.147 0-145.361 25.971-204.844 80.113C319.726 515.245 154.326 598.417 18.701 698.905"/><path id="n" d="M18.193 730.355c134.733-100.622 299.083-184.959 412.8-286.3 59.1-52.665 128.233-78.386 202.243-78.386q3.618 0 7.249.083c165.624 3.741 337.269 91.961 476.643 209.447a1357 1357 0 0 1 108.379 101.955c71.8 75.509 126.464 165.579 197.536 240.692a677.5 677.5 0 0 0 271.712 174.89 675.5 675.5 0 0 0 218.729 36.34 677 677 0 0 0 98.014-7.128c179.864-26.367 348.538-120.585 529.1-144.757a647 647 0 0 1 71.514-5.545q7.28-.169 14.556-.167c110.746 0 220.433 28.633 311.235 90.932 39.832 27.271 75.335 60.816 105.834 98.843 30.279 37.769 55.783 79.479 81.567 120.686 27.2 43.443 54.917 86.462 88.541 125.252 59.357 68.489 133.8 119.94 211.6 165.449 33.249 19.464 67.135 37.865 100.872 55.871 74.368 39.315 153.731 77.959 235.364 77.959q4.256 0 8.524-.142c115.207-3.845 206.8-79.067 312.33-138.4 17.319-9.757 34.987-19.035 53.221-27.283 55.429-25.088 115.628-38.669 173.819-38.669 53.6 0 105.509 11.523 150.414 36.2 21.518 11.823 41.568 26.259 61.024 42.685 61.14 51.934 111.1 122.21 181.768 165.408a300.4 300.4 0 0 0 95.981 37.844 357 357 0 0 0 73.439 7.295c76.938 0 153.885-21.522 222.941-42.689-69.057 21.168-146 42.689-222.941 42.689a357 357 0 0 1-73.439-7.295 300.4 300.4 0 0 1-95.969-37.845c-70.664-43.2-120.627-113.474-181.768-165.408-19.456-16.427-39.506-30.862-61.024-42.685-44.905-24.679-96.81-36.2-150.414-36.2-58.191 0-118.391 13.581-173.819 38.669-18.234 8.249-35.9 17.526-53.221 27.283-105.529 59.333-197.124 134.554-312.33 138.4q-4.268.144-8.524.142c-81.633 0-161-38.644-235.364-77.959-33.736-18.005-67.623-36.407-100.872-55.871-77.8-45.51-152.248-96.96-211.6-165.449-33.624-38.79-61.345-81.808-88.541-125.252-25.784-41.206-51.288-82.916-81.567-120.686-30.5-38.027-66-71.572-105.834-98.843-90.8-62.3-200.49-90.932-311.235-90.932q-7.274 0-14.556.167a647 647 0 0 0-71.514 5.545c-180.564 24.172-349.238 118.39-529.1 144.757a677 677 0 0 1-98.014 7.128 675.5 675.5 0 0 1-218.729-36.34 677.5 677.5 0 0 1-271.712-174.89c-71.072-75.113-125.739-165.183-197.536-240.692a1357 1357 0 0 0-108.391-101.954C977.754 457.713 806.109 369.493 640.485 365.752q-3.631-.083-7.249-.083c-74.01 0-143.143 25.721-202.243 78.388-113.717 101.339-278.067 185.676-412.8 286.298"/><path id="o" d="M17.685 761.799C151.531 661.048 314.627 575.32 428.868 475.256c58.611-51.338 126.78-76.68 199.669-76.68q4.887 0 9.8.15c166.008 5.133 336.227 93.031 474.973 210.48a1393 1393 0 0 1 108.065 101.805c71.722 75.284 126.872 164.658 198.1 239.23a680.56 680.56 0 0 0 271.554 173.819 676.7 676.7 0 0 0 218.341 36.09 682 682 0 0 0 97.731-7.036c179.41-26.013 348.038-118.965 528.089-143.811a663 663 0 0 1 71.289-5.92q9.661-.281 19.318-.283c108.812 0 216.558 27.242 306.244 87.745 39.931 26.883 75.526 60.132 106.188 97.86 30.438 37.474 56.159 78.9 82.129 119.815 27.4 43.147 55.3 85.878 88.932 124.51 59.353 68.2 133.338 119.873 210.58 165.787 33.011 19.643 66.61 38.328 100.155 56.466 74.843 40.465 154.931 79.808 237.385 79.808q2.33 0 4.661-.042c114.7-2.075 207.085-74.03 312.777-132.417 17.339-9.6 35.007-18.785 53.217-27 57.017-25.725 118.869-39.89 178.456-39.89 51.513 0 101.334 10.59 144.865 33.449 21.588 11.34 41.781 25.292 61.408 41.315 61.648 50.651 111.986 120.327 182.159 164.012a310.4 310.4 0 0 0 95.014 39.058 371 371 0 0 0 83.8 9.09c72.43 0 144.515-17.914 209.685-35.557-65.17 17.643-137.254 35.557-209.685 35.557a371 371 0 0 1-83.8-9.09 310.4 310.4 0 0 1-95.015-39.052c-70.172-43.685-120.511-113.361-182.159-164.012-19.627-16.023-39.82-29.974-61.408-41.315-43.53-22.859-93.352-33.449-144.865-33.449-59.587 0-121.439 14.165-178.456 39.89-18.209 8.211-35.878 17.393-53.217 27-105.692 58.387-198.074 130.342-312.777 132.417q-2.331.044-4.661.042c-82.454 0-162.542-39.344-237.385-79.808-33.545-18.139-67.144-36.824-100.155-56.466-77.242-45.914-151.227-97.589-210.58-165.787-33.632-38.632-61.536-81.363-88.932-124.51-25.97-40.915-51.692-82.341-82.129-119.815-30.662-37.727-66.256-70.977-106.187-97.86-89.686-60.5-197.432-87.745-306.244-87.745q-9.655 0-19.318.283a663 663 0 0 0-71.289 5.92c-180.052 24.846-348.68 117.8-528.089 143.811a682 682 0 0 1-97.731 7.036 676.7 676.7 0 0 1-218.341-36.09 680.56 680.56 0 0 1-271.554-173.819c-71.227-74.572-126.377-163.946-198.1-239.23a1393 1393 0 0 0-108.063-101.811c-138.745-117.449-308.965-205.347-474.973-210.48q-4.912-.15-9.8-.15c-72.891 0-141.06 25.342-199.671 76.68C314.627 575.32 151.531 661.048 17.685 761.799"/><path id="p" d="M17.181 793.249c132.959-100.884 294.8-188 409.566-286.793 58.129-50.034 125.368-74.993 197.161-74.993q6.124 0 12.294.242c166.387 6.528 335.182 94.1 473.3 211.513a1431 1431 0 0 1 107.75 101.655c71.639 75.059 127.276 163.733 198.657 237.768 75.359 78.063 168.462 137.808 271.4 172.753a678 678 0 0 0 217.95 35.836 688 688 0 0 0 97.447-6.945c178.96-25.659 347.543-117.34 527.077-142.865a679 679 0 0 1 71.068-6.295q12.129-.438 24.259-.442c106.821 0 212.563 25.9 301.075 84.6 40.031 26.488 75.717 59.441 106.542 96.877 30.591 37.173 56.533 78.313 82.692 118.944 27.6 42.848 55.683 85.287 89.319 123.76 59.353 67.911 132.875 119.815 209.56 166.133 32.774 19.818 66.119 38.719 99.438 57.054 75.63 41.623 156.655 80.879 240.209 81.721q1.394.013 2.779.012c112.925 0 205.443-69.469 310.435-126.451 17.36-9.444 35.032-18.526 53.217-26.7 58.662-26.388 122.227-41.194 183.242-41.194 49.372 0 97.073 9.694 139.163 30.779 21.667 10.857 41.993 24.325 61.794 39.944 62.158 49.371 112.866 118.448 182.547 162.617a321.3 321.3 0 0 0 94.052 40.26c31.559 7.982 63.532 11.207 95.361 11.207 67.481 0 134.326-14.477 195.236-28.746-60.911 14.269-127.755 28.746-195.236 28.746-31.829 0-63.8-3.225-95.361-11.207a321.3 321.3 0 0 1-94.052-40.26c-69.681-44.168-120.39-113.245-182.547-162.617-19.8-15.618-40.126-29.087-61.794-39.944-42.089-21.084-89.791-30.779-139.163-30.779-61.015 0-124.581 14.806-183.242 41.194-18.184 8.178-35.857 17.26-53.217 26.7-104.992 56.983-197.511 126.451-310.435 126.451q-1.387 0-2.779-.012c-83.553-.842-164.579-40.1-240.209-81.721-33.32-18.335-66.665-37.236-99.438-57.054-76.684-46.318-150.207-98.222-209.56-166.133-33.637-38.473-61.724-80.912-89.319-123.76-26.159-40.631-52.1-81.771-82.692-118.944-30.824-37.436-66.51-70.389-106.542-96.877-88.511-58.7-194.254-84.6-301.075-84.6q-12.123 0-24.259.442a679 679 0 0 0-71.068 6.295c-179.535 25.525-348.117 117.207-527.077 142.865a688 688 0 0 1-97.447 6.945 678 678 0 0 1-217.95-35.836c-102.934-34.945-196.036-94.69-271.4-172.753-71.381-74.034-127.018-162.708-198.657-237.768a1431 1431 0 0 0-107.75-101.655c-138.121-117.411-306.913-204.985-473.3-211.513q-6.167-.242-12.294-.242c-71.793 0-139.032 24.959-197.161 74.993C311.981 605.245 150.14 692.363 17.181 793.249"/><path id="q" d="M16.672 824.698c132.071-101.017 292.647-189.524 407.954-287.039 57.654-48.763 123.985-73.33 194.716-73.33q7.33 0 14.714.354c166.77 7.932 334.14 95.169 471.627 212.546a1469 1469 0 0 1 107.434 101.505c71.555 74.835 127.685 162.813 199.219 236.31 75.551 77.513 168.462 136.946 271.237 171.682a679.6 679.6 0 0 0 217.571 35.578 694.5 694.5 0 0 0 97.152-6.845c178.51-25.309 347.047-115.72 526.065-141.924a696 696 0 0 1 70.851-6.67q14.7-.637 29.387-.641c104.771 0 208.447 24.621 295.713 81.5 40.131 26.1 75.909 58.758 106.9 95.893 30.745 36.878 56.9 77.73 83.253 118.078 27.8 42.548 56.067 84.7 89.708 123.014 59.353 67.619 132.417 119.748 208.539 166.474 32.541 19.993 65.627 39.107 98.722 57.645 75.01 42.014 155.351 82.6 238.367 83.67q1.893.025 3.775.025c112 0 205.043-64.607 309.885-120.486 17.38-9.286 35.049-18.272 53.213-26.412 60.37-27.075 125.7-42.573 188.184-42.573 47.176 0 92.731 8.832 133.309 28.187 21.739 10.369 42.206 23.355 62.177 38.569 62.666 48.092 113.745 116.569 182.934 161.221a333.5 333.5 0 0 0 93.09 41.473c35.891 9.878 72.3 13.694 108.425 13.694 61.982 0 123.106-11.231 179.281-22.309-56.174 11.078-117.3 22.309-179.281 22.309-36.123 0-72.534-3.816-108.425-13.694a333.5 333.5 0 0 1-93.09-41.473c-69.189-44.652-120.269-113.129-182.934-161.221-19.971-15.214-40.438-28.2-62.177-38.569-40.577-19.355-86.133-28.187-133.309-28.187-62.486 0-127.814 15.5-188.184 42.573-18.164 8.14-35.833 17.126-53.213 26.412-104.845 55.881-197.889 120.492-309.889 120.492q-1.881 0-3.775-.025c-83.016-1.075-163.358-41.656-238.367-83.67-33.095-18.539-66.182-37.653-98.722-57.645-76.122-46.726-149.186-98.856-208.539-166.474-33.641-38.315-61.912-80.467-89.708-123.014-26.35-40.348-52.509-81.2-83.253-118.078-30.987-37.136-66.765-69.794-106.9-95.893-87.265-56.879-190.941-81.5-295.713-81.5q-14.685 0-29.387.641a696 696 0 0 0-70.851 6.67c-179.019 26.2-347.555 116.615-526.065 141.924a694.5 694.5 0 0 1-97.152 6.845 679.6 679.6 0 0 1-217.568-35.581c-102.776-34.736-195.687-94.169-271.237-171.682-71.533-73.5-127.663-161.478-199.218-236.312a1469 1469 0 0 0-107.434-101.506C968.196 559.852 800.826 472.615 634.056 464.683q-7.384-.354-14.714-.354c-70.731 0-137.062 24.567-194.716 73.33-115.307 97.515-275.883 186.022-407.954 287.039"/><path id="r" d="M16.164 856.148c131.18-101.147 290.5-191.05 406.337-287.29 57.192-47.513 122.644-71.676 192.333-71.676q8.5 0 17.077.479c167.153 9.344 333.099 96.239 469.953 213.58 38.111 32.649 74.093 66.906 107.117 101.355 71.481 74.609 128.1 161.892 199.786 234.847 75.734 76.967 168.462 136.087 271.075 170.611a681.1 681.1 0 0 0 217.2 35.328 700 700 0 0 0 96.852-6.753c178.052-24.95 346.547-114.095 525.049-140.974a714 714 0 0 1 70.631-7.049q17.354-.875 34.7-.879c102.668 0 204.222 23.384 290.168 78.434 40.235 25.709 76.1 58.074 107.254 94.915 30.9 36.578 57.279 77.142 83.816 117.2 28 42.248 56.449 84.116 90.094 122.273 59.349 67.327 131.954 119.681 207.518 166.812 32.3 20.172 65.14 39.5 98.006 58.237 74.389 42.406 154.052 83.254 236.53 85.624q4.287.118 8.54.121c109.434 0 202.065-60.436 305.562-114.6 17.4-9.132 35.07-18.022 53.208-26.125 62.136-27.787 129.284-44.047 193.275-44.047 44.93 0 88.307 8.016 127.3 25.688 21.817 9.886 42.419 22.388 62.565 37.2 63.174 46.814 114.628 114.687 183.326 159.821a347 347 0 0 0 92.119 42.685c40.9 12.186 82.445 16.627 123.46 16.627 55.767 0 110.545-8.211 161.358-16.314-50.813 8.1-105.591 16.314-161.358 16.314-41.015 0-82.562-4.441-123.46-16.627a347 347 0 0 1-92.119-42.685c-68.7-45.135-120.152-113.008-183.326-159.821-20.146-14.81-40.748-27.312-62.565-37.2-38.994-17.672-82.371-25.688-127.3-25.688-63.991 0-131.138 16.26-193.275 44.047-18.139 8.1-35.807 16.993-53.208 26.125-103.5 54.162-196.128 114.6-305.562 114.6q-4.255 0-8.54-.121c-82.479-2.37-162.142-43.219-236.53-85.624-32.866-18.735-65.7-38.065-98.006-58.237-75.563-47.13-148.169-99.485-207.518-166.812-33.645-38.157-62.1-80.025-90.094-122.273-26.538-40.06-52.917-80.625-83.816-117.2-31.15-36.84-67.019-69.206-107.254-94.915-85.945-55.05-187.5-78.434-290.168-78.434q-17.341 0-34.7.879a714 714 0 0 0-70.631 7.049c-178.5 26.879-347 116.024-525.049 140.974a700 700 0 0 1-96.852 6.753 681.1 681.1 0 0 1-217.2-35.328c-102.613-34.524-195.341-93.644-271.075-170.611-71.689-72.955-128.305-160.238-199.786-234.847-33.024-34.449-69.006-68.706-107.117-101.355-136.854-117.341-302.8-204.236-469.953-213.58q-8.574-.479-17.077-.479c-69.689 0-135.141 24.163-192.333 71.676-115.837 96.24-275.157 186.143-406.337 287.29"/><path id="s" d="M15.66 887.592C145.952 786.31 304.011 695.018 420.385 600.053c56.729-46.292 121.319-70.043 189.992-70.043q9.648 0 19.393.625c167.537 10.757 332.057 97.31 468.282 214.613 37.919 32.624 73.784 66.827 106.809 101.2 71.4 74.389 128.5 160.975 200.344 233.389 75.926 76.426 168.462 135.233 270.917 169.545a682.6 682.6 0 0 0 216.813 35.074 705 705 0 0 0 96.564-6.661c177.6-24.6 346.047-112.474 524.036-140.028q35.238-5.443 70.41-7.424 20.09-1.15 40.185-1.158c100.51 0 199.882 22.2 284.452 75.413 40.335 25.317 76.3 57.383 107.6 93.927 31.058 36.282 57.658 76.559 84.383 116.336 28.2 41.948 56.833 83.529 90.482 121.527 59.35 67.04 131.5 119.615 206.5 167.154 32.066 20.347 64.648 39.89 97.29 58.828 73.767 42.794 152.751 83.908 234.689 87.574q6.8.306 13.531.3c106.858 0 198.957-56.379 301.012-108.8 17.422-8.978 35.094-17.768 53.208-25.838 63.961-28.512 132.967-45.6 198.5-45.6 42.639 0 83.808 7.236 121.165 23.271a341.5 341.5 0 0 1 62.949 35.823c63.682 45.531 115.507 112.8 183.713 158.426a362 362 0 0 0 91.157 43.893c46.835 15.052 94.5 20.117 141.229 20.117 48.567 0 96.127-5.47 140.7-10.877-44.572 5.408-92.132 10.877-140.7 10.877-46.73 0-94.394-5.065-141.229-20.117a362 362 0 0 1-91.157-43.893c-68.206-45.622-120.031-112.9-183.713-158.426a341.5 341.5 0 0 0-62.949-35.823c-37.356-16.035-78.525-23.271-121.165-23.271-65.532 0-134.538 17.089-198.5 45.6-18.114 8.07-35.786 16.86-53.208 25.838-102.055 52.421-194.154 108.8-301.012 108.8q-6.725 0-13.531-.3c-81.937-3.666-160.921-44.78-234.689-87.574-32.641-18.939-65.224-38.481-97.29-58.828-75-47.538-147.148-100.114-206.5-167.154-33.649-38-62.286-79.579-90.482-121.527-26.725-39.777-53.325-80.054-84.383-116.336-31.307-36.544-67.268-68.61-107.6-93.927-84.57-53.217-183.942-75.413-284.452-75.413q-20.078 0-40.185 1.158-35.107 1.987-70.41 7.424c-177.989 27.554-346.434 115.432-524.036 140.028a705 705 0 0 1-96.564 6.661 682.6 682.6 0 0 1-216.813-35.074c-102.455-34.311-194.991-93.119-270.917-169.545-71.843-72.414-128.947-159-200.344-233.389-33.024-34.374-68.889-68.577-106.809-101.2C961.827 627.945 797.306 541.392 629.77 530.635q-9.749-.625-19.393-.625c-68.673 0-133.263 23.751-189.992 70.043C304.011 695.018 145.952 786.31 15.66 887.592"/><path id="t" d="M15.152 919.042c129.405-101.409 286.2-194.1 403.109-287.785 56.279-45.097 120.031-68.435 187.717-68.435q10.761 0 21.647.787c167.927 12.182 331.015 98.381 466.611 215.65 37.728 32.6 73.472 66.748 106.492 101.051 71.318 74.164 128.909 160.05 200.907 231.931 76.113 75.876 168.466 134.371 270.758 168.474a684 684 0 0 0 216.442 34.82 712 712 0 0 0 96.26-6.566c177.152-24.246 345.551-110.854 523.024-139.087q35.132-5.581 70.189-7.8 22.916-1.475 45.843-1.491c98.3 0 195.433 21.068 278.565 72.443 40.436 24.925 76.488 56.7 107.958 92.948 31.212 35.982 58.033 75.972 84.95 115.465 28.391 41.648 57.216 82.941 90.869 120.782 59.345 66.744 131.03 119.548 205.473 167.491 31.833 20.526 64.161 40.286 96.573 59.42 73.152 43.185 151.456 84.574 232.852 89.528q9.474.574 18.8.571c104.25 0 195.678-52.425 296.188-103.088 17.439-8.819 35.111-17.514 53.2-25.55 65.844-29.258 136.745-47.26 203.847-47.26 40.315 0 79.259 6.5 114.9 20.959a335.4 335.4 0 0 1 63.332 34.453c64.194 44.251 116.391 110.92 184.1 157.03a378.6 378.6 0 0 0 90.19 45.1c54.225 18.722 109.517 24.292 163.179 24.292 39.89 0 78.88-3.079 115.857-6.12-36.977 3.041-75.967 6.12-115.857 6.12-53.662 0-108.954-5.57-163.179-24.292a378.6 378.6 0 0 1-90.19-45.1c-67.714-46.11-119.911-112.778-184.1-157.03a335.4 335.4 0 0 0-63.332-34.453c-35.645-14.46-74.588-20.959-114.9-20.959-67.1 0-138 18-203.847 47.26-18.094 8.036-35.766 16.731-53.2 25.55-100.51 50.663-191.938 103.088-296.188 103.088q-9.33 0-18.8-.571c-81.4-4.954-159.7-46.343-232.852-89.528-32.411-19.134-64.74-38.894-96.573-59.42-74.443-47.943-146.128-100.747-205.473-167.491-33.653-37.84-62.478-79.134-90.869-120.782-26.917-39.494-53.738-79.484-84.95-115.465-31.47-36.249-67.522-68.023-107.958-92.948-83.133-51.374-180.264-72.441-278.564-72.441q-22.9 0-45.843 1.491-35 2.231-70.189 7.8c-177.473 28.233-345.872 114.841-523.024 139.087a712 712 0 0 1-96.26 6.566 684 684 0 0 1-216.442-34.82c-102.293-34.1-194.645-92.6-270.758-168.474-72-71.881-129.589-157.767-200.907-231.931-33.02-34.3-68.764-68.452-106.492-101.051C958.64 661.99 795.552 575.791 627.624 563.609q-10.885-.787-21.646-.787c-67.686 0-131.438 23.338-187.717 68.435-116.909 93.682-273.704 186.376-403.109 287.785"/><path id="u" d="M14.644 950.492c128.522-101.543 284.052-195.633 401.5-288.035 55.821-43.923 118.753-66.84 185.46-66.84q11.861 0 23.88.971c168.3 13.61 329.97 99.451 464.941 216.683 37.532 32.574 73.159 66.665 106.175 100.9 71.239 73.939 129.313 159.13 201.465 230.469 76.3 75.33 168.47 133.513 270.6 167.4a685.6 685.6 0 0 0 216.067 34.566 719 719 0 0 0 95.96-6.47c176.7-23.892 345.055-109.229 522.011-138.141q35.02-5.711 69.964-8.174 25.84-1.85 51.7-1.875c96.027 0 190.858 19.989 272.484 69.523 40.535 24.534 76.684 56.012 108.316 91.965 31.366 35.682 58.4 75.392 85.5 114.595 28.6 41.348 57.6 82.358 91.261 120.04 59.345 66.456 130.572 119.486 204.452 167.832 31.6 20.7 63.674 40.673 95.86 60.007 72.526 43.577 150.152 85.241 231.01 91.482q12.273.944 24.33.933c101.626 0 192.25-48.6 291.093-97.472 17.468-8.661 35.14-17.256 53.2-25.255 67.777-30.024 140.616-49.026 209.309-49.026 37.957 0 74.651 5.8 108.525 18.747a326.5 326.5 0 0 1 63.724 33.082c64.786 42.844 117.273 109.033 184.493 155.634a397.5 397.5 0 0 0 89.227 46.31c64.328 23.78 130.1 29.4 192.871 29.4 28.512 0 56.408-1.158 83.267-2.3-26.859 1.146-54.755 2.3-83.267 2.3-62.773 0-128.543-5.624-192.871-29.4a397.5 397.5 0 0 1-89.227-46.31c-67.22-46.6-119.707-112.791-184.493-155.634a326.5 326.5 0 0 0-63.724-33.082c-33.874-12.948-70.568-18.747-108.525-18.747-68.693 0-141.532 19-209.309 49.026-18.064 8-35.737 16.593-53.2 25.255-98.843 48.876-189.466 97.472-291.093 97.472q-12.054 0-24.33-.933c-80.858-6.241-158.484-47.905-231.01-91.482-32.187-19.334-64.261-39.306-95.86-60.007-73.88-48.347-145.107-101.376-204.452-167.832-33.662-37.682-62.661-78.692-91.261-120.04-27.1-39.2-54.138-78.913-85.5-114.595-31.633-35.953-67.781-67.431-108.316-91.965-81.625-49.534-176.456-69.523-272.484-69.523q-25.82 0-51.7 1.875-34.888 2.468-69.964 8.174c-176.956 28.912-345.313 114.249-522.011 138.141a719 719 0 0 1-95.96 6.47 685.6 685.6 0 0 1-216.067-34.566c-102.134-33.891-194.3-92.073-270.6-167.4-72.151-71.339-130.226-156.53-201.465-230.469-33.016-34.236-68.644-68.327-106.175-100.9-134.972-117.232-296.638-203.073-464.942-216.683q-12.017-.971-23.879-.971c-66.707 0-129.639 22.917-185.46 66.84-117.448 92.402-272.978 186.492-401.5 288.035"/><path id="v" d="M14.139 981.936c127.626-101.676 281.894-197.161 399.88-288.28 55.371-42.761 117.495-65.261 183.247-65.261q12.948 0 26.073 1.166c168.693 15.044 328.926 100.518 463.268 217.721 37.344 32.549 72.851 66.581 105.863 100.747 71.156 73.714 129.726 158.209 202.027 229.007 76.492 74.784 168.47 132.654 270.442 166.337a687 687 0 0 0 215.688 34.316 724 724 0 0 0 95.669-6.382c176.244-23.538 344.556-107.6 520.995-137.2q34.92-5.843 69.748-8.549c19.214-1.508 38.473-2.3 57.679-2.3 93.715 0 186.209 18.96 266.267 66.652 40.644 24.142 76.88 55.325 108.671 90.982 31.52 35.382 58.783 74.805 86.074 113.724 28.791 41.048 57.983 81.771 91.644 119.294 59.341 66.165 130.109 119.419 203.427 168.17 31.362 20.88 63.186 41.064 95.143 60.6 71.91 43.964 148.86 85.908 229.173 93.431q15.241 1.431 30.166 1.408c98.968 0 188.638-44.9 285.7-91.965 17.485-8.5 35.161-17.006 53.2-24.971 69.748-30.8 144.54-50.888 214.854-50.888 35.582 0 70.014 5.145 102.067 16.643a320.3 320.3 0 0 1 64.1 31.712c65.294 41.552 118.157 107.146 184.884 154.23a418.8 418.8 0 0 0 88.257 47.522c85.387 33.7 173.194 36.061 253.215 36.061q10.1 0 20.039-.033-9.93.025-20.039.033c-80.021 0-167.828-2.362-253.215-36.061a418.8 418.8 0 0 1-88.257-47.522c-66.727-47.084-119.589-112.678-184.884-154.23a320.3 320.3 0 0 0-64.1-31.712c-32.053-11.5-66.485-16.643-102.067-16.643-70.314 0-145.106 20.089-214.854 50.888-18.043 7.966-35.719 16.468-53.2 24.971-97.06 47.063-186.73 91.965-285.7 91.965q-14.935 0-30.166-1.408c-80.313-7.524-157.263-49.467-229.173-93.431-31.957-19.539-63.781-39.723-95.143-60.6-73.318-48.751-144.086-102.005-203.427-168.17-33.662-37.523-62.853-78.246-91.644-119.294-27.292-38.919-54.554-78.342-86.074-113.724-31.791-35.657-68.027-66.84-108.671-90.982-80.058-47.693-172.552-66.652-266.267-66.652-19.206 0-38.465.8-57.679 2.3q-34.776 2.712-69.748 8.549c-176.439 29.591-344.751 113.658-520.995 137.2a724 724 0 0 1-95.669 6.382 687 687 0 0 1-215.688-34.317c-101.972-33.682-193.949-91.553-270.442-166.337-72.3-70.8-130.871-155.293-202.027-229.007-33.012-34.166-68.519-68.2-105.863-100.747-134.342-117.202-294.575-202.676-463.268-217.72q-13.121-1.166-26.073-1.166c-65.752 0-127.876 22.5-183.247 65.261-117.986 91.119-272.254 186.604-399.88 288.28"/><path id="w" d="M13.631 1013.385c126.739-101.805 279.74-198.69 398.268-288.529 54.921-41.633 116.257-63.7 181.068-63.7q14.01 0 28.229 1.383c169.074 16.485 327.883 101.589 461.6 218.754 37.153 32.524 72.543 66.5 105.546 100.6 71.076 73.489 130.134 157.284 202.594 227.548 76.676 74.238 168.47 131.8 270.279 165.262a688.8 688.8 0 0 0 215.338 34.062 731.5 731.5 0 0 0 95.344-6.282c175.794-23.188 344.059-105.984 519.983-136.254q34.813-5.974 69.526-8.92c21.26-1.82 42.581-2.8 63.832-2.8 91.349 0 181.451 17.985 259.881 63.836 40.748 23.751 77.075 54.642 109.029 90 31.674 35.086 59.153 74.222 86.636 112.858 28.992 40.748 58.366 81.183 92.032 118.544 59.341 65.877 129.651 119.357 202.406 168.516 31.125 21.055 62.694 41.452 94.427 61.191 71.293 44.352 147.56 86.578 227.332 95.385a330 330 0 0 0 36.323 1.991c96.281 0 184.838-41.339 279.986-86.57 17.506-8.344 35.179-16.747 53.2-24.68 71.764-31.591 148.532-52.871 220.487-52.871 33.182 0 65.344 4.525 95.519 14.652a314.5 314.5 0 0 1 64.49 30.341c65.8 40.273 119.041 105.259 185.275 152.835a443 443 0 0 0 87.292 48.73c91.59 38.49 185.834 41.7 270.362 44.956-84.528-3.258-178.772-6.466-270.362-44.956a443 443 0 0 1-87.292-48.73c-66.235-47.576-119.473-112.562-185.275-152.835a314.5 314.5 0 0 0-64.49-30.341c-30.174-10.128-62.336-14.652-95.519-14.652-71.955 0-148.723 21.28-220.487 52.871-18.022 7.932-35.695 16.335-53.2 24.68-95.148 45.231-183.7 86.57-279.986 86.57a330 330 0 0 1-36.323-1.991c-79.771-8.807-156.039-51.034-227.332-95.385-31.733-19.739-63.3-40.136-94.427-61.191-72.756-49.159-143.065-102.639-202.406-168.516-33.666-37.361-63.04-77.8-92.032-118.544-27.483-38.636-54.962-77.771-86.636-112.858-31.954-35.357-68.281-66.248-109.029-90-78.43-45.851-168.532-63.836-259.881-63.836-21.251 0-42.573.975-63.832 2.8q-34.663 2.943-69.526 8.92c-175.923 30.27-344.189 113.066-519.983 136.254a731.5 731.5 0 0 1-95.344 6.282 688.8 688.8 0 0 1-215.338-34.062c-101.809-33.465-193.6-91.023-270.279-165.262-72.46-70.264-131.517-154.06-202.594-227.548-33-34.095-68.394-68.073-105.546-100.6-133.717-117.165-292.526-202.269-461.6-218.754q-14.211-1.383-28.229-1.383c-64.811 0-126.147 22.067-181.068 63.7C293.371 814.695 140.37 911.58 13.631 1013.385"/><path id="x" d="M13.127 1044.835c125.851-101.938 277.586-200.223 396.651-288.776 54.475-40.519 115.033-62.153 178.927-62.153a288 288 0 0 1 30.349 1.612c169.458 17.931 326.842 102.659 459.926 219.788 36.961 32.5 72.23 66.423 105.229 100.447 71 73.264 130.542 156.364 203.156 226.086 76.867 73.693 168.47 130.938 270.121 164.2a690.5 690.5 0 0 0 214.958 33.8 739 739 0 0 0 95.048-6.187c175.344-22.83 343.559-104.363 518.974-135.3q34.695-6.112 69.3-9.3c23.338-2.17 46.763-3.345 70.1-3.345 88.949 0 176.631 17.06 253.382 61.082 40.848 23.363 77.267 53.954 109.383 89.019 31.829 34.786 59.529 73.635 87.2 111.983 29.187 40.452 58.75 80.6 92.424 117.8 59.336 65.586 129.184 119.29 201.381 168.857q46.337 31.845 93.711 61.782c70.676 44.735 146.265 87.249 225.495 97.335a339 339 0 0 0 42.814 2.7c93.552 0 180.83-37.928 273.932-81.3 17.527-8.19 35.2-16.5 53.2-24.392 73.814-32.391 152.56-54.971 226.177-54.971 30.778 0 60.662 3.95 88.916 12.777a309.3 309.3 0 0 1 64.873 28.971c66.311 38.99 119.923 103.371 185.663 151.439a470.5 470.5 0 0 0 86.329 49.938c90.6 40.448 183.672 47.164 267.471 53.883-83.8-6.72-176.869-13.435-267.471-53.883a470.5 470.5 0 0 1-86.329-49.938c-65.74-48.068-119.352-112.449-185.663-151.439a309.3 309.3 0 0 0-64.873-28.971c-28.254-8.828-58.138-12.777-88.916-12.777-73.618 0-152.364 22.58-226.177 54.971-18 7.895-35.673 16.2-53.2 24.392-93.1 43.368-180.38 81.3-273.932 81.3a339 339 0 0 1-42.814-2.7c-79.229-10.086-154.818-52.6-225.495-97.335q-47.255-29.914-93.711-61.782c-72.2-49.567-142.045-103.271-201.381-168.857-33.674-37.2-63.236-77.351-92.424-117.8-27.67-38.348-55.37-77.2-87.2-111.983-32.116-35.065-68.535-65.657-109.383-89.019-76.751-44.023-164.433-61.082-253.382-61.082-23.338 0-46.764 1.175-70.1 3.345q-34.551 3.187-69.3 9.3c-175.415 30.941-343.63 112.474-518.974 135.3a739 739 0 0 1-95.048 6.187 690.5 690.5 0 0 1-214.958-33.8c-101.651-33.258-193.254-90.5-270.121-164.2-72.614-69.723-132.159-152.822-203.156-226.086-33-34.024-68.269-67.948-105.229-100.447-133.084-117.129-290.468-201.857-459.925-219.788a288 288 0 0 0-30.35-1.612c-63.894 0-124.452 21.634-178.927 62.153-119.065 88.553-270.8 186.838-396.651 288.776"/><path id="y" d="M12.619 1076.28c124.964-102.067 275.428-201.756 395.035-289.026 54.033-39.42 113.828-60.62 176.814-60.62a287 287 0 0 1 32.441 1.858c169.841 19.385 325.8 103.726 458.255 220.82 36.769 32.474 71.918 66.34 104.917 100.293 70.914 73.043 130.951 155.447 203.714 224.628 77.055 73.147 168.474 130.08 269.963 163.129 69.568 22.651 141.87 33.553 214.579 33.553a745.5 745.5 0 0 0 94.752-6.1c174.894-22.475 343.064-102.738 517.962-134.358q34.588-6.243 69.085-9.674c25.454-2.549 51.026-3.953 76.484-3.953 86.512 0 171.744 16.181 246.766 58.391 40.948 22.967 77.459 53.267 109.733 88.032 31.987 34.491 59.908 73.051 87.766 111.116 29.392 40.148 59.133 80.013 92.811 117.057 59.333 65.294 128.726 119.227 200.361 169.195q45.98 32.114 92.994 62.374c70.056 45.122 144.969 87.928 223.653 99.289a347 347 0 0 0 49.671 3.549c90.786 0 176.61-34.674 267.521-76.167 17.547-8.032 35.224-16.239 53.2-24.1 75.884-33.191 156.6-57.183 231.889-57.183 28.383 0 55.992 3.408 82.283 11.019a303.8 303.8 0 0 1 65.261 27.6c66.819 37.707 120.807 101.48 186.055 150.044a501.7 501.7 0 0 0 85.362 51.146c89.615 42.414 181.514 52.625 264.58 62.811-83.066-10.186-174.965-20.4-264.58-62.811a501.7 501.7 0 0 1-85.362-51.146c-65.248-48.564-119.236-112.337-186.055-150.044a303.8 303.8 0 0 0-65.261-27.6c-26.292-7.611-53.9-11.019-82.283-11.019-75.288 0-156 23.992-231.889 57.183-17.976 7.861-35.653 16.068-53.2 24.1-90.911 41.494-176.735 76.167-267.521 76.167a347 347 0 0 1-49.671-3.549c-78.684-11.361-153.6-54.167-223.653-99.289q-46.912-30.214-92.994-62.374c-71.635-49.967-141.028-103.9-200.361-169.195-33.678-37.044-63.419-76.909-92.811-117.057-27.858-38.065-55.779-76.626-87.766-111.116-32.274-34.765-68.785-65.065-109.733-88.032-75.021-42.209-160.253-58.387-246.767-58.387-25.458 0-51.03 1.4-76.484 3.953q-34.445 3.424-69.085 9.674c-174.9 31.62-343.068 111.883-517.962 134.358a745.5 745.5 0 0 1-94.752 6.1c-72.709 0-145.011-10.9-214.579-33.553-101.489-33.049-192.908-89.982-269.963-163.129-72.764-69.181-132.8-151.585-203.714-224.628-33-33.953-68.148-67.819-104.917-100.293C942.709 832.218 786.75 747.877 616.909 728.492a287 287 0 0 0-32.441-1.858c-62.986 0-122.781 21.2-176.814 60.62-119.607 87.27-270.071 186.959-395.035 289.026"/><path id="z" d="M12.111 1107.73c124.073-102.201 273.27-203.294 393.423-289.28 53.587-38.341 112.632-59.1 174.723-59.1a284 284 0 0 1 34.507 2.121c170.224 20.843 324.758 104.8 456.584 221.853 36.578 32.449 71.61 66.261 104.6 100.143 70.835 72.818 131.359 154.522 204.277 223.17 77.246 72.6 168.478 129.222 269.8 162.058 69.5 22.518 141.653 33.295 214.229 33.295a753 753 0 0 0 94.431-6c174.436-22.126 342.564-101.118 516.945-133.417q34.482-6.374 68.865-10.048a776 776 0 0 1 82.967-4.624c84.045 0 166.807 15.348 240.05 55.758 41.052 22.58 77.655 52.584 110.092 87.053 32.141 34.19 60.282 72.464 88.328 110.241 29.587 39.852 59.516 79.43 93.2 116.315 59.333 65 128.264 119.161 199.336 169.536q45.631 32.376 92.282 62.965c69.44 45.505 143.67 88.607 221.816 101.238a355 355 0 0 0 56.887 4.541c87.978 0 172.165-31.587 260.743-71.177 17.568-7.878 35.244-15.989 53.2-23.813 77.979-34 160.654-59.528 237.629-59.528 25.992 0 51.338 2.912 75.63 9.39a298.7 298.7 0 0 1 65.644 26.225c67.323 36.428 121.694 99.593 186.443 148.648a538 538 0 0 0 84.395 52.354c88.628 44.38 179.355 58.091 261.693 71.739-82.337-13.648-173.065-27.358-261.693-71.739a538 538 0 0 1-84.395-52.354c-64.749-49.055-119.12-112.22-186.443-148.648a298.7 298.7 0 0 0-65.644-26.225c-24.292-6.478-49.638-9.39-75.63-9.39-76.976 0-159.65 25.53-237.629 59.528-17.956 7.824-35.633 15.935-53.2 23.813-88.578 39.59-172.765 71.177-260.743 71.177a355 355 0 0 1-56.887-4.541c-78.146-12.631-152.376-55.733-221.816-101.238q-46.574-30.52-92.282-62.965c-71.072-50.375-140-104.534-199.336-169.536-33.682-36.886-63.611-76.463-93.2-116.315-28.046-37.777-56.187-76.051-88.328-110.241-32.437-34.47-69.04-64.473-110.092-87.053-73.243-40.41-156.005-55.758-240.05-55.758a776 776 0 0 0-82.967 4.624q-34.332 3.668-68.865 10.048c-174.382 32.3-342.51 111.291-516.945 133.417a753 753 0 0 1-94.431 6c-72.576 0-144.728-10.777-214.229-33.295-101.326-32.837-192.558-89.457-269.8-162.058-72.918-68.648-133.442-150.352-204.277-223.17-32.991-33.882-68.023-67.694-104.6-100.143-131.826-117.057-286.36-201.011-456.584-221.853a284 284 0 0 0-34.507-2.121c-62.091 0-121.136 20.759-174.723 59.1-120.153 85.986-269.35 187.079-393.423 289.28"/><path id="A" d="M11.607 1139.179c123.185-102.33 271.112-204.83 391.806-289.522 53.146-37.295 111.45-57.608 172.67-57.608a282 282 0 0 1 36.544 2.4c170.6 22.313 323.713 105.867 454.909 222.891 36.386 32.424 71.3 66.182 104.284 99.993 70.756 72.589 131.767 153.6 204.839 221.707 77.434 72.056 168.478 128.364 269.646 160.988 69.427 22.384 141.428 33.041 213.859 33.041a761 761 0 0 0 94.127-5.9c173.986-21.772 342.068-99.493 515.933-132.471q34.375-6.505 68.643-10.424a785 785 0 0 1 89.515-5.366c81.563 0 161.838 14.564 233.273 53.2 41.151 22.188 77.846 51.9 110.445 86.07 32.3 33.895 60.658 71.881 88.891 109.375 29.787 39.552 59.9 78.842 93.586 115.57 59.333 64.711 127.805 119.094 198.315 169.874q45.281 32.645 91.565 63.557c68.823 45.889 142.374 89.291 219.974 103.193a364.3 364.3 0 0 0 64.477 5.687c85.129 0 167.5-28.675 253.6-66.344 17.589-7.72 35.265-15.735 53.2-23.521 80.083-34.8 164.687-62 243.358-62a290.5 290.5 0 0 1 68.986 7.886 294 294 0 0 1 66.031 24.854c67.831 35.145 122.581 97.7 186.834 147.248a580.6 580.6 0 0 0 83.429 53.567c87.636 46.355 177.193 63.553 258.8 80.667-81.6-17.114-171.161-34.312-258.8-80.667a580.6 580.6 0 0 1-83.429-53.567c-64.253-49.547-119-112.1-186.834-147.248a294 294 0 0 0-66.031-24.854 290.5 290.5 0 0 0-68.986-7.886c-78.671 0-163.275 27.2-243.358 62-17.931 7.786-35.607 15.8-53.2 23.521-86.1 37.669-168.47 66.344-253.6 66.344a364.3 364.3 0 0 1-64.477-5.687c-77.6-13.9-151.152-57.3-219.974-103.193q-46.231-30.826-91.565-63.557c-70.51-50.78-138.983-105.163-198.315-169.874-33.687-36.728-63.8-76.018-93.586-115.57-28.233-37.494-56.591-75.48-88.891-109.375-32.6-34.174-69.294-63.882-110.445-86.07-71.435-38.632-151.71-53.2-233.273-53.2a785 785 0 0 0-89.515 5.366q-34.226 3.912-68.643 10.424c-173.865 32.978-341.948 110.7-515.933 132.471a761 761 0 0 1-94.127 5.9c-72.431 0-144.432-10.657-213.859-33.041-101.168-32.624-192.212-88.932-269.646-160.988-73.072-68.106-134.084-149.119-204.839-221.707-32.987-33.811-67.9-67.569-104.284-99.993C936.34 900.311 783.23 816.758 612.627 794.449a282 282 0 0 0-36.544-2.4c-61.22 0-119.523 20.314-172.669 57.608-120.695 84.692-268.622 187.192-391.807 289.522"/><path id="B" d="M11.098 1170.631c122.3-102.467 268.95-206.372 390.194-289.775 52.696-36.253 110.271-56.125 170.62-56.125a280 280 0 0 1 38.569 2.691c170.982 23.784 322.667 106.938 453.234 223.924 36.2 32.4 70.993 66.1 103.976 99.843 70.672 72.364 132.171 152.681 205.4 220.245 77.621 71.51 168.478 127.505 269.483 159.921 69.352 22.251 141.2 32.787 213.488 32.787a769 769 0 0 0 93.823-5.812c173.536-21.418 341.572-97.872 514.921-131.526q34.27-6.636 68.423-10.8a792 792 0 0 1 96.118-6.17c79.071 0 156.851 13.815 226.44 50.7 41.252 21.793 78.038 51.209 110.8 85.087 32.453 33.595 61.033 71.3 89.453 108.5 29.987 39.252 60.283 78.255 93.977 114.828 59.328 64.419 127.343 119.028 197.291 170.215q44.924 32.907 90.848 64.144c68.206 46.276 141.074 89.978 218.138 105.146a374 374 0 0 0 72.464 7c82.225 0 162.575-25.942 246.05-61.678 17.61-7.566 35.286-15.481 53.2-23.234 82.187-35.607 168.678-64.6 249.062-64.6a283.1 283.1 0 0 1 128.784 30c68.335 33.866 123.468 95.81 187.22 145.853a631 631 0 0 0 82.468 54.775c86.64 48.335 175.031 69.015 255.905 89.595-80.875-20.58-169.265-41.26-255.905-89.595a631 631 0 0 1-82.468-54.775c-63.752-50.042-118.885-111.987-187.22-145.853a283.1 283.1 0 0 0-128.784-30c-80.384 0-166.875 28.991-249.062 64.6-17.91 7.753-35.586 15.668-53.2 23.234-83.475 35.736-163.825 61.678-246.05 61.678a374 374 0 0 1-72.464-7c-77.063-15.168-149.932-58.87-218.138-105.146q-45.887-31.126-90.848-64.144c-69.948-51.188-137.962-105.8-197.291-170.215-33.695-36.573-63.99-75.576-93.977-114.828-28.42-37.2-57-74.905-89.453-108.5-32.761-33.878-69.548-63.294-110.8-85.087-69.589-36.886-147.369-50.7-226.44-50.7a792 792 0 0 0-96.118 6.17q-34.114 4.15-68.423 10.8c-173.349 33.653-341.385 110.108-514.921 131.526a769 769 0 0 1-93.823 5.812c-72.285 0-144.136-10.536-213.488-32.787-101.005-32.416-191.862-88.411-269.483-159.921-73.23-67.565-134.729-147.881-205.4-220.245-32.982-33.741-67.777-67.44-103.976-99.843-130.567-116.986-282.252-200.14-453.234-223.924a280 280 0 0 0-38.569-2.691c-60.349 0-117.924 19.872-170.62 56.125-121.244 83.403-267.894 187.308-390.194 289.775"/><path id="C" d="M10.59 1202.073c121.406-102.593 266.788-207.91 388.578-290.022 52.25-35.224 109.1-54.65 168.595-54.65a278 278 0 0 1 40.573 3c171.361 25.263 321.625 108 451.564 224.957 36.007 32.378 70.681 66.019 103.659 99.693 70.593 72.139 132.584 151.756 205.964 218.787 77.809 70.96 168.482 126.643 269.325 158.846 69.285 22.122 140.995 32.537 213.146 32.537a776 776 0 0 0 93.49-5.716c173.086-21.063 341.073-96.252 513.908-130.584q34.157-6.768 68.2-11.173a800.5 800.5 0 0 1 102.743-7.041c76.576 0 151.868 13.11 219.583 48.268 41.356 21.405 78.234 50.521 111.158 84.108 32.607 33.291 61.407 70.71 90.015 107.629 30.187 38.952 60.666 77.667 94.365 114.083 59.324 64.128 126.88 118.961 196.27 170.553q44.568 33.176 90.132 64.74c67.594 46.655 139.774 90.665 216.3 107.1a383 383 0 0 0 80.825 8.5c79.284 0 157.422-23.4 238.134-57.2 17.631-7.407 35.307-15.227 53.192-22.942 84.291-36.39 172.628-67.323 254.732-67.323a280.85 280.85 0 0 1 122.585 27.375c68.843 32.587 124.355 93.915 187.612 144.457a691 691 0 0 0 81.5 55.983c85.646 50.313 172.869 74.48 253.016 98.522-80.146-24.042-167.37-48.209-253.016-98.522a691 691 0 0 1-81.5-55.983c-63.257-50.542-118.769-111.87-187.612-144.457a280.85 280.85 0 0 0-122.585-27.375c-82.1 0-170.441 30.933-254.732 67.323-17.885 7.716-35.561 15.535-53.192 22.942-80.712 33.8-158.85 57.2-238.134 57.2a383 383 0 0 1-80.825-8.5c-76.522-16.431-148.7-60.441-216.3-107.1q-45.543-31.439-90.132-64.74c-69.389-51.592-136.946-106.425-196.27-170.553-33.7-36.415-64.178-75.13-94.365-114.083-28.608-36.919-57.408-74.339-90.015-107.629-32.924-33.586-69.8-62.7-111.158-84.108-67.715-35.157-143.007-48.268-219.583-48.268a800.5 800.5 0 0 0-102.745 7.036q-34 4.393-68.2 11.173c-172.834 34.333-340.82 109.521-513.906 130.585a776 776 0 0 1-93.49 5.716c-72.151 0-143.861-10.415-213.146-32.537-100.843-32.2-191.516-87.887-269.325-158.846-73.38-67.031-135.371-146.648-205.964-218.787-32.978-33.674-67.652-67.315-103.659-99.693-129.939-116.953-280.203-199.695-451.565-224.953a278 278 0 0 0-40.573-3c-59.494 0-116.344 19.426-168.594 54.65-121.79 82.112-267.172 187.429-388.578 290.022"/><path id="D" d="M10.086 1233.523c120.519-102.726 264.626-209.451 386.965-290.264 51.797-34.224 107.935-53.2 166.583-53.2a276 276 0 0 1 42.56 3.316c171.741 26.746 320.584 109.075 449.892 225.99 35.815 32.353 70.368 65.94 103.343 99.539 70.514 71.918 132.992 150.839 206.526 217.329 78 70.418 168.482 125.785 269.167 157.78 69.21 21.988 140.77 32.282 212.776 32.282a785 785 0 0 0 93.19-5.624c172.632-20.709 340.573-94.627 512.892-129.634q34.051-6.911 67.981-11.552a806 806 0 0 1 109.379-7.986c74.08 0 146.89 12.444 212.717 45.909 41.456 21.018 78.429 49.838 111.512 83.125 32.762 32.995 61.782 70.126 90.578 106.763 30.387 38.653 61.049 77.08 94.752 113.337 59.324 63.836 126.423 118.894 195.25 170.894 29.474 22.292 59.282 44.168 89.415 65.328 66.977 47.038 138.475 91.361 214.458 109.049a393 393 0 0 0 89.545 10.186c76.292 0 152.043-21.047 229.852-52.9 17.652-7.249 35.333-14.969 53.192-22.651 86.374-37.169 176.493-70.185 260.326-70.185a278.9 278.9 0 0 1 116.462 24.892c69.348 31.308 125.243 92.023 188 143.062a764 764 0 0 0 80.534 57.191c84.649 52.3 170.715 79.942 250.127 107.45-79.413-27.508-165.479-55.15-250.127-107.45a764 764 0 0 1-80.534-57.191c-62.757-51.038-118.652-111.754-188-143.062a278.9 278.9 0 0 0-116.462-24.892c-83.833 0-173.952 33.016-260.326 70.185-17.86 7.682-35.541 15.4-53.192 22.651-77.808 31.857-153.559 52.9-229.852 52.9a393 393 0 0 1-89.545-10.186c-75.983-17.689-147.481-62.011-214.458-109.049-30.133-21.16-59.941-43.035-89.415-65.328-68.827-52-135.925-107.058-195.25-170.894-33.7-36.257-64.365-74.684-94.752-113.337-28.8-36.636-57.816-73.768-90.578-106.763-33.083-33.287-70.056-62.107-111.512-83.125-65.827-33.466-138.637-45.909-212.717-45.909a806 806 0 0 0-109.379 7.986q-33.888 4.63-67.981 11.552c-172.319 35.007-340.26 108.922-512.894 129.634a785 785 0 0 1-93.19 5.624c-72.005 0-143.565-10.294-212.776-32.282-100.685-32-191.166-87.362-269.167-157.78-73.535-66.49-136.012-145.411-206.526-217.329-32.974-33.6-67.527-67.186-103.343-99.539-129.306-116.915-278.149-199.244-449.89-225.99a276 276 0 0 0-42.56-3.316c-58.648 0-114.786 18.976-166.583 53.2-122.339 80.813-266.446 187.538-386.965 290.264"/><path id="E" d="M9.578 1264.972c119.632-102.859 262.464-210.992 385.349-290.517 51.351-33.233 106.779-51.755 164.596-51.755a274.6 274.6 0 0 1 44.526 3.654c172.115 28.237 319.542 110.146 448.223 227.027 35.624 32.324 70.06 65.857 103.03 99.385 70.431 71.693 133.4 149.919 207.085 215.871 78.191 69.868 168.491 124.927 269.008 156.709 69.135 21.851 140.545 32.024 212.409 32.024a794 794 0 0 0 92.881-5.528c172.178-20.355 340.077-93 511.879-128.688q33.945-7.043 67.765-11.927c38.486-5.578 77.425-9.007 116-9.007 71.594 0 141.941 11.81 205.864 43.631 41.556 20.622 78.621 49.151 111.862 82.142 32.92 32.695 62.157 69.539 91.145 105.888 30.587 38.352 61.432 76.5 95.14 112.591 59.324 63.549 125.96 118.836 194.228 171.24 29.241 22.467 58.8 44.552 88.7 65.919 66.365 47.418 137.171 92.057 212.617 111a402.8 402.8 0 0 0 98.616 12.069c73.251 0 146.44-18.889 221.224-48.809 17.672-7.095 35.348-14.719 53.188-22.363 88.448-37.936 180.275-73.185 265.858-73.185a276.9 276.9 0 0 1 110.4 22.547c69.794 30.17 126.131 90.128 188.392 141.665a852 852 0 0 0 79.567 58.4c83.642 54.291 168.553 85.407 247.237 116.378-78.684-30.97-163.6-62.086-247.237-116.378a852 852 0 0 1-79.567-58.4c-62.261-51.538-118.6-111.495-188.392-141.665a276.9 276.9 0 0 0-110.4-22.547c-85.583 0-177.41 35.249-265.858 73.185-17.84 7.645-35.516 15.268-53.188 22.363-74.784 29.921-147.973 48.809-221.224 48.809a402.8 402.8 0 0 1-98.618-12.073c-75.446-18.943-146.252-63.582-212.617-111-29.9-21.367-59.458-43.452-88.7-65.919-68.269-52.4-134.9-107.692-194.228-171.24-33.708-36.094-64.552-74.239-95.14-112.591-28.987-36.349-58.225-73.193-91.145-105.888-33.241-32.991-70.306-61.52-111.862-82.142-63.924-31.82-134.271-43.631-205.864-43.631-38.573 0-77.513 3.429-116 9.007q-33.783 4.874-67.765 11.927c-171.8 35.686-339.7 108.333-511.879 128.688a794 794 0 0 1-92.881 5.528c-71.864 0-143.274-10.173-212.409-32.024-100.515-31.778-190.815-86.837-269.006-156.705-73.689-65.952-136.654-144.178-207.085-215.871-32.97-33.528-67.406-67.06-103.03-99.385-128.681-116.881-276.108-198.79-448.223-227.027a274.6 274.6 0 0 0-44.526-3.654c-57.817 0-113.245 18.522-164.596 51.755-122.885 79.525-265.717 187.658-385.349 290.517"/><path id="F" d="M9.069 1296.417c118.744-102.988 260.3-212.538 383.737-290.763 50.896-32.254 105.621-50.33 162.612-50.33a273.3 273.3 0 0 1 46.489 4c172.486 29.733 318.5 111.212 446.548 228.061 35.432 32.3 69.748 65.773 102.714 99.235 70.351 71.468 133.808 149 207.647 214.409 78.376 69.323 168.487 124.069 268.85 155.639 69.073 21.726 140.345 31.778 212.076 31.778a802 802 0 0 0 92.54-5.437c171.728-20.005 339.581-91.382 510.867-127.747q33.839-7.174 67.544-12.3c40.648-6.195 81.829-10.09 122.59-10.09 69.123 0 137.033 11.206 199.04 41.41 41.664 20.23 78.817 48.464 112.22 81.159 33.074 32.4 62.532 68.956 91.707 105.021 30.787 38.052 61.815 75.909 95.527 111.845 59.324 63.257 125.5 118.769 193.208 171.578 29 22.651 58.307 44.939 87.978 66.511 65.756 47.8 135.875 92.757 210.784 112.953a412.2 412.2 0 0 0 107.979 14.169c70.181 0 140.649-16.918 212.3-44.922 17.689-6.941 35.37-14.465 53.184-22.076 90.495-38.682 183.951-76.309 271.3-76.309a278 278 0 0 1 36.474 2.333 274.7 274.7 0 0 1 67.956 17.993c70.3 28.892 127.023 88.232 188.78 140.266a964 964 0 0 0 78.6 59.611c82.634 56.283 166.391 90.87 244.345 125.306-77.954-34.436-161.711-69.023-244.345-125.306a964 964 0 0 1-78.6-59.611c-61.757-52.034-118.478-111.375-188.78-140.266a274.7 274.7 0 0 0-67.956-17.993 278 278 0 0 0-36.474-2.333c-87.349 0-180.8 37.627-271.3 76.309-17.814 7.611-35.495 15.135-53.184 22.076-71.656 28-142.124 44.922-212.3 44.922a412.2 412.2 0 0 1-107.979-14.169c-74.909-20.2-145.028-65.156-210.784-112.953-29.671-21.572-58.975-43.86-87.978-66.511-67.706-52.808-133.884-108.321-193.208-171.578-33.712-35.936-64.74-73.793-95.527-111.845-29.175-36.065-58.633-72.622-91.707-105.021-33.4-32.695-70.556-60.928-112.22-81.159-62.007-30.2-129.917-41.41-199.04-41.41-40.761 0-81.942 3.9-122.59 10.09q-33.669 5.112-67.544 12.3c-171.286 36.365-339.139 107.742-510.867 127.747a802 802 0 0 1-92.54 5.437c-71.73 0-143-10.053-212.076-31.778-100.364-31.57-190.475-86.316-268.85-155.639-73.839-65.411-137.3-142.94-207.647-214.409-32.966-33.462-67.281-66.936-102.714-99.235C920.404 1070.54 774.393 989.06 601.907 959.324a273.3 273.3 0 0 0-46.489-4c-56.991 0-111.716 18.076-162.612 50.33-123.437 78.225-264.993 187.775-383.737 290.763"/><path id="G" d="M8.565 1327.866c117.853-103.121 258.131-214.088 382.12-291.013 50.438-31.296 104.48-48.922 160.651-48.922a272 272 0 0 1 48.429 4.37c172.861 31.241 317.455 112.287 444.877 229.1 35.24 32.274 69.435 65.694 102.4 99.085 70.273 71.243 134.217 148.073 208.214 212.946 78.563 68.781 168.486 123.21 268.688 154.572 69 21.592 140.12 31.52 211.709 31.52a812 812 0 0 0 92.232-5.341c171.278-19.651 339.085-89.757 509.855-126.8q33.732-7.305 67.323-12.677c42.781-6.849 86.2-11.257 129.122-11.257 66.681 0 132.179 10.636 192.279 39.273 41.764 19.843 79.008 47.78 112.574 80.179 33.228 32.1 62.908 68.369 92.27 104.151 30.987 37.752 62.2 75.322 95.918 111.1 59.316 62.965 125.035 118.7 192.183 171.919 28.766 22.822 57.82 45.327 87.261 67.1 65.144 48.18 134.571 93.456 208.943 114.907a421.7 421.7 0 0 0 117.594 16.477c67.077 0 134.687-15.135 203.131-41.252 17.713-6.782 35.394-14.21 53.183-21.784 92.5-39.41 187.5-79.571 276.637-79.571a275 275 0 0 1 30.225 1.625 271 271 0 0 1 68.339 16.618c70.81 27.608 127.914 86.337 189.171 138.87a1108 1108 0 0 0 77.638 60.82c81.621 58.278 164.229 96.331 241.455 134.238-77.225-37.907-159.834-75.959-241.455-134.238a1108 1108 0 0 1-77.638-60.82c-61.258-52.533-118.361-111.262-189.171-138.87a271 271 0 0 0-68.339-16.618 275 275 0 0 0-30.225-1.625c-89.132 0-184.134 40.161-276.637 79.571-17.789 7.574-35.469 15-53.183 21.784-68.444 26.117-136.054 41.252-203.131 41.252a421.7 421.7 0 0 1-117.594-16.477c-74.372-21.451-143.8-66.727-208.943-114.907-29.441-21.772-58.495-44.277-87.261-67.1-67.148-53.217-132.867-108.954-192.183-171.919-33.72-35.778-64.932-73.347-95.918-111.1-29.362-35.782-59.042-72.051-92.27-104.151-33.566-32.4-70.81-60.337-112.574-80.179-60.1-28.637-125.6-39.273-192.279-39.273-42.927 0-86.341 4.408-129.122 11.257q-33.564 5.355-67.323 12.677c-170.77 37.044-338.577 107.15-509.855 126.8a812 812 0 0 1-92.232 5.341c-71.589 0-142.711-9.928-211.709-31.52-100.2-31.362-190.125-85.791-268.688-154.572-74-64.873-137.941-141.7-208.214-212.946-32.962-33.391-67.156-66.81-102.4-99.085-127.421-116.813-272.015-197.859-444.877-229.1a272 272 0 0 0-48.429-4.37c-56.171 0-110.213 17.626-160.651 48.922-123.989 76.925-264.267 187.892-382.12 291.013"/><path id="H" d="M8.057 1359.315c116.965-103.25 255.965-215.637 380.5-291.259 49.984-30.349 103.326-47.53 158.7-47.53a270.7 270.7 0 0 1 50.367 4.753c173.233 32.747 316.41 113.358 443.203 230.132 35.049 32.253 69.127 65.615 102.084 98.935 70.189 71.018 134.621 147.152 208.772 211.488 78.75 68.231 168.491 122.348 268.529 153.5 68.931 21.459 139.9 31.266 211.355 31.266a822 822 0 0 0 91.915-5.249c170.824-19.293 338.585-88.137 508.842-125.856q33.62-7.436 67.1-13.048c44.885-7.532 90.511-12.494 135.579-12.494 64.269 0 127.4 10.09 185.592 37.207 41.865 19.447 79.2 47.093 112.929 79.192 33.382 31.8 63.281 67.79 92.832 103.28 31.187 37.457 62.586 74.738 96.306 110.358 59.316 62.674 124.577 118.636 191.158 172.257 28.537 23 57.337 45.714 86.549 67.694 64.532 48.555 133.263 94.16 207.106 116.857a430.9 430.9 0 0 0 127.38 19.005c63.965 0 128.613-13.536 193.787-37.8 17.73-6.624 35.411-13.956 53.179-21.493 94.477-40.115 190.938-82.966 281.873-82.966q12.1 0 24.071 1.045a267.5 267.5 0 0 1 68.731 15.248c71.314 26.329 128.8 84.441 189.554 137.475 26.046 22.738 51.789 43.422 76.672 62.028 80.608 60.278 162.075 101.8 238.568 143.161-76.493-41.365-157.959-82.883-238.568-143.161-24.883-18.605-50.625-39.29-76.672-62.028-60.753-53.033-118.24-111.146-189.554-137.475a267.5 267.5 0 0 0-68.731-15.248q-11.966-1.062-24.071-1.045c-90.936 0-187.4 42.852-281.873 82.966-17.768 7.536-35.448 14.869-53.179 21.493-65.174 24.267-129.822 37.8-193.787 37.8a430.9 430.9 0 0 1-127.38-19.005c-73.843-22.7-142.574-68.3-207.106-116.857-29.212-21.98-58.012-44.689-86.549-67.694-66.582-53.621-131.843-109.582-191.163-172.256-33.72-35.62-65.119-72.9-96.306-110.358-29.55-35.49-59.449-71.477-92.832-103.28-33.728-32.1-71.064-59.745-112.929-79.192-58.2-27.117-121.323-37.207-185.592-37.207-45.068 0-90.694 4.962-135.579 12.494q-33.451 5.587-67.1 13.048c-170.257 37.719-338.019 106.563-508.842 125.856a822 822 0 0 1-91.915 5.249c-71.452 0-142.424-9.807-211.355-31.266-100.038-31.153-189.779-85.27-268.529-153.5-74.151-64.336-138.583-140.47-208.772-211.488-32.958-33.32-67.036-66.681-102.084-98.935-126.788-116.775-269.965-197.386-443.202-230.133a270.7 270.7 0 0 0-50.363-4.753c-55.374 0-108.716 17.181-158.7 47.53-124.535 75.622-263.535 188.009-380.5 291.259"/><path id="I" d="M7.553 1390.765c116.078-103.384 253.8-217.187 378.888-291.509 49.512-29.421 102.171-46.147 156.734-46.147a269.5 269.5 0 0 1 52.3 5.149c173.6 34.261 315.372 114.424 441.536 231.164 34.861 32.228 68.818 65.536 101.768 98.781 70.11 70.8 135.033 146.232 209.339 210.03 78.942 67.685 168.491 121.494 268.371 152.431 68.864 21.33 139.7 31.016 211.013 31.016a832 832 0 0 0 91.582-5.153c170.37-18.943 338.085-86.516 507.83-124.914q33.508-7.567 66.877-13.423c46.951-8.245 94.769-13.8 141.941-13.8 61.9 0 122.7 9.569 178.993 35.211 41.973 19.06 79.4 46.405 113.287 78.213 33.536 31.5 63.661 67.2 93.4 102.409 31.386 37.152 62.965 74.151 96.689 109.612 59.32 62.382 124.119 118.569 190.138 172.6 28.3 23.176 56.858 46.1 85.837 68.281 63.915 48.934 131.955 94.869 205.264 118.811a439.5 439.5 0 0 0 137.275 21.751c60.849 0 122.456-12.1 184.334-34.565 17.751-6.47 35.432-13.7 53.179-21.205 96.41-40.8 194.216-86.491 286.993-86.491q9.054 0 18.039.6a264.2 264.2 0 0 1 69.11 13.877c71.823 25.05 129.7 82.542 189.946 136.079 25.784 22.909 51.188 44.052 75.706 63.236 79.587 62.282 159.912 107.258 235.676 152.089-75.764-44.831-156.089-89.807-235.676-152.089-24.518-19.185-49.922-40.327-75.706-63.236-60.249-53.537-118.123-111.028-189.946-136.079a264.2 264.2 0 0 0-69.11-13.877q-8.986-.6-18.039-.6c-92.778 0-190.584 45.693-286.993 86.491-17.748 7.5-35.428 14.735-53.179 21.205-61.878 22.467-123.485 34.565-184.334 34.565a439.5 439.5 0 0 1-137.275-21.751c-73.309-23.942-141.349-69.877-205.264-118.811-28.979-22.184-57.533-45.105-85.837-68.281-66.019-54.029-130.818-110.216-190.138-172.6-33.723-35.461-65.3-72.46-96.689-109.612-29.737-35.207-59.862-70.906-93.4-102.409-33.891-31.808-71.314-59.153-113.287-78.213-56.3-25.642-117.094-35.211-178.993-35.211-47.172 0-94.99 5.557-141.941 13.8q-33.345 5.83-66.877 13.423c-169.745 38.4-337.461 105.971-507.83 124.914a832 832 0 0 1-91.582 5.153c-71.318 0-142.149-9.686-211.013-31.016-99.88-30.937-189.429-84.745-268.371-152.431-74.305-63.8-139.229-139.233-209.339-210.03-32.949-33.245-66.906-66.552-101.768-98.781-126.164-116.74-267.934-196.902-441.536-231.164a269.5 269.5 0 0 0-52.3-5.149c-54.563 0-107.222 16.726-156.734 46.147-125.094 74.322-262.81 188.125-378.888 291.509"/><path id="J" d="M7.045 1422.211c115.191-103.518 251.632-218.742 377.275-291.76 49.043-28.5 101.014-44.772 154.781-44.772a268.6 268.6 0 0 1 54.233 5.553c173.969 35.782 314.327 115.495 439.861 232.2 34.67 32.2 68.51 65.452 101.455 98.631 70.031 70.572 135.437 145.311 209.9 208.568 79.13 67.14 168.5 120.636 268.213 151.364 68.8 21.2 139.487 30.762 210.672 30.762a841 841 0 0 0 91.249-5.062c169.92-18.589 337.589-84.891 506.818-123.968q33.4-7.7 66.656-13.8c48.984-8.978 98.956-15.181 148.206-15.181 59.57 0 118.082 9.074 172.5 33.286 42.069 18.668 79.588 45.722 113.637 77.23 33.695 31.208 64.036 66.619 93.961 101.539 31.587 36.857 63.353 73.568 97.081 108.871 59.316 62.091 123.656 118.507 189.117 172.936 28.062 23.359 56.366 46.48 85.115 68.877 63.312 49.309 130.647 95.573 203.427 120.761a447.4 447.4 0 0 0 147.194 24.721c57.75 0 116.278-10.819 174.856-31.557 17.772-6.312 35.457-13.448 53.175-20.914 98.293-41.447 197.349-90.136 292-90.136q6.074 0 12.119.271a260.8 260.8 0 0 1 69.5 12.506c72.339 23.767 130.592 80.637 190.337 134.675 25.525 23.088 50.588 44.689 74.743 64.448 78.563 64.286 157.751 112.724 232.781 161.021-75.03-48.3-154.218-96.735-232.781-161.021-24.155-19.76-49.218-41.36-74.743-64.448-59.745-54.038-118-110.908-190.337-134.675a260.8 260.8 0 0 0-69.5-12.506q-6.05-.268-12.119-.271c-94.648 0-193.7 48.688-292 90.136-17.718 7.466-35.4 14.6-53.175 20.914-58.579 20.738-117.107 31.557-174.856 31.557a447.4 447.4 0 0 1-147.194-24.721c-72.78-25.188-140.116-71.452-203.427-120.761-28.75-22.4-57.053-45.518-85.115-68.877-65.461-54.429-129.8-110.845-189.117-172.936-33.728-35.3-65.494-72.014-97.081-108.871-29.925-34.92-60.266-70.331-93.961-101.539-34.049-31.508-71.568-58.562-113.637-77.23-54.421-24.213-112.933-33.286-172.5-33.286-49.25 0-99.222 6.2-148.206 15.181q-33.226 6.068-66.656 13.8c-169.228 39.077-336.9 105.38-506.818 123.968a841 841 0 0 1-91.249 5.062c-71.185 0-141.874-9.565-210.672-30.762-99.718-30.731-189.086-84.227-268.218-151.366-74.459-63.257-139.866-138-209.9-208.568-32.945-33.178-66.786-66.427-101.455-98.631-125.529-116.703-265.887-196.416-439.856-232.198a268.6 268.6 0 0 0-54.233-5.553c-53.767 0-105.738 16.272-154.78 44.772-125.644 73.018-262.085 188.242-377.276 291.76"/><path id="K" d="M6.536 1453.66c114.3-103.646 249.462-220.3 375.663-292.005 48.572-27.6 99.855-43.427 152.831-43.427a267.6 267.6 0 0 1 56.158 5.982c174.332 37.311 313.285 116.561 438.191 233.231 34.478 32.178 68.2 65.373 101.143 98.481 69.948 70.347 135.846 144.39 210.455 207.11 79.321 66.594 168.5 119.773 268.054 150.294 68.74 21.067 139.287 30.508 210.339 30.508a852 852 0 0 0 90.911-4.966c169.466-18.239 337.09-83.271 505.8-123.023q33.295-7.836 66.436-14.177c50.967-9.744 103.063-16.639 154.351-16.639 57.287 0 113.562 8.6 166.128 31.445 42.168 18.276 79.784 45.03 113.991 76.247 33.849 30.9 64.411 66.032 94.523 100.668 31.787 36.557 63.736 72.98 97.472 108.125 59.308 61.8 123.189 118.44 188.092 173.278 27.829 23.534 55.883 46.864 84.4 69.464 62.7 49.688 129.334 96.29 201.59 122.714a454.8 454.8 0 0 0 157.055 27.9c54.687 0 110.121-9.686 165.433-28.758 17.793-6.153 35.478-13.194 53.176-20.626 100.134-42.081 200.327-93.915 296.887-93.915q3.162 0 6.316.075a258 258 0 0 1 69.881 11.135c72.847 22.484 131.488 78.738 190.729 133.28 25.262 23.263 49.983 45.318 73.776 65.661 77.533 66.289 155.588 118.181 229.889 169.944-74.3-51.763-152.356-103.655-229.889-169.944-23.792-20.343-48.514-42.4-73.776-65.661-59.241-54.542-117.882-110.8-190.729-133.28a258 258 0 0 0-69.881-11.135q-3.157-.075-6.316-.075c-96.56 0-196.753 51.834-296.887 93.915-17.7 7.432-35.382 14.473-53.176 20.626-55.312 19.072-110.745 28.758-165.433 28.758a454.8 454.8 0 0 1-157.055-27.9c-72.255-26.425-138.891-73.026-201.59-122.714-28.517-22.6-56.571-45.93-84.4-69.464-64.9-54.837-128.784-111.475-188.092-173.278-33.737-35.145-65.686-71.568-97.472-108.125-30.112-34.636-60.674-69.764-94.523-100.668-34.207-31.216-71.822-57.97-113.991-76.247-52.565-22.846-108.84-31.446-166.127-31.446-51.288 0-103.384 6.895-154.351 16.639q-33.114 6.311-66.436 14.177c-168.711 39.752-336.335 104.784-505.8 123.023a852 852 0 0 1-90.911 4.966c-71.052 0-141.6-9.44-210.339-30.508-99.555-30.52-188.733-83.7-268.054-150.294-74.609-62.719-140.507-136.762-210.455-207.11-32.945-33.107-66.665-66.3-101.143-98.481-124.907-116.668-263.861-195.919-438.192-233.23a267.6 267.6 0 0 0-56.158-5.982c-52.976 0-104.259 15.827-152.831 43.427-126.201 71.71-261.363 188.358-375.663 292.005"/><path id="L" d="M6.032 1485.109c113.412-103.78 247.291-221.853 374.047-292.255 48.088-26.708 98.693-42.085 150.885-42.085a266.7 266.7 0 0 1 58.087 6.42c174.69 38.844 312.24 117.632 436.516 234.264 34.286 32.153 67.885 65.294 100.826 98.331 69.868 70.123 136.254 143.47 211.022 205.647 79.5 66.048 168.495 118.915 267.892 149.223 68.664 20.934 139.074 30.254 209.988 30.254a864 864 0 0 0 90.586-4.87c169.016-17.885 336.594-81.65 504.789-122.077q33.189-7.968 66.215-14.552c52.9-10.532 107.083-18.164 160.367-18.164 55.054 0 109.146 8.145 159.879 29.667 42.273 17.885 79.979 44.347 114.349 75.263 34.008 30.608 64.786 65.448 95.085 99.8 31.987 36.253 64.12 72.393 97.86 107.379 59.308 61.511 122.731 118.374 187.071 173.619 27.592 23.709 55.442 47.193 83.683 70.056 62.191 49.938 128.022 97 199.749 124.664a461.4 461.4 0 0 0 166.766 31.3c51.684 0 104.046-8.682 156.163-26.175 17.818-5.995 35.5-12.939 53.176-20.334 102.134-42.773 203.577-97.318 302.291-97.81h1.258a249 249 0 0 1 69.006 9.765c73.355 21.205 132.384 76.838 191.117 131.884 25 23.434 49.384 45.951 72.81 66.869 76.5 68.3 153.431 123.648 227 178.873-73.572-55.225-150.5-110.575-227-178.873-23.426-20.918-47.805-43.435-72.81-66.869-58.732-55.046-117.761-110.679-191.117-131.884a249 249 0 0 0-69.006-9.765h-1.258c-98.714.491-200.157 55.037-302.291 97.81-17.672 7.395-35.357 14.339-53.176 20.334-52.117 17.493-104.479 26.175-156.163 26.175a461.4 461.4 0 0 1-166.766-31.3c-71.727-27.667-137.558-74.726-199.749-124.664-28.241-22.863-56.091-46.347-83.683-70.056-64.339-55.244-127.764-112.104-187.07-173.618-33.74-34.986-65.873-71.127-97.86-107.379-30.3-34.353-61.078-69.194-95.085-99.8-34.37-30.916-72.076-57.379-114.349-75.263-50.734-21.522-104.826-29.667-159.879-29.667-53.284 0-107.467 7.632-160.367 18.164q-33 6.555-66.215 14.552c-168.2 40.427-335.773 104.192-504.789 122.077a864 864 0 0 1-90.586 4.87c-70.914 0-141.324-9.319-209.988-30.254-99.4-30.308-188.388-83.175-267.892-149.223-74.768-62.178-141.153-135.525-211.022-205.647-32.941-33.037-66.54-66.177-100.826-98.331-124.278-116.633-261.828-195.421-436.517-234.265a266.7 266.7 0 0 0-58.087-6.42c-52.192 0-102.8 15.377-150.885 42.085-126.756 70.402-260.635 188.475-374.047 292.255"/><path id="M" d="M5.524 1516.554c112.524-103.909 244.991-223.661 372.434-292.5 47.506-25.901 97.406-40.786 148.777-40.786a267 267 0 0 1 60.17 6.891c175.048 40.385 311.2 118.707 434.845 235.3 34.095 32.128 67.577 65.215 100.509 98.181 69.789 69.9 136.662 142.545 211.584 204.185 79.7 65.5 168.5 118.061 267.734 148.156 68.6 20.805 138.87 30 209.655 30a875 875 0 0 0 90.244-4.779c168.562-17.526 336.1-80.025 503.777-121.131q33.082-8.1 66-14.927c54.783-11.336 111.008-19.755 166.25-19.755 52.867 0 104.834 7.711 153.764 27.954 42.372 17.5 80.171 43.664 114.7 74.284 34.162 30.308 65.156 64.861 95.648 98.926 32.187 35.957 64.5 71.81 98.248 106.634 59.307 61.224 122.269 118.311 186.051 173.961 27.354 23.888 54.954 47.584 82.966 70.648 61.574 50.326 126.706 97.718 197.911 126.618 56.65 23 116 34.9 176.269 34.9a472.5 472.5 0 0 0 147.1-23.792c17.839-5.841 35.524-12.686 53.171-20.047 101.955-42.543 202.447-99.922 301.374-101.784q2.624-.044 5.257-.046a251.3 251.3 0 0 1 65.4 8.436c73.859 19.926 133.279 74.938 191.5 130.488 24.743 23.6 48.776 46.585 71.844 68.077 75.463 70.306 151.272 129.109 224.111 187.8-72.839-58.691-148.648-117.495-224.111-187.8-23.068-21.493-47.1-44.472-71.844-68.077-58.224-55.55-117.644-110.562-191.5-130.488a251.3 251.3 0 0 0-65.4-8.436q-2.631 0-5.257.046c-98.927 1.862-199.419 59.241-301.374 101.784-17.647 7.361-35.332 14.206-53.171 20.047a472.5 472.5 0 0 1-147.1 23.792c-60.266 0-119.619-11.9-176.269-34.9-71.206-28.9-136.337-76.292-197.911-126.618-28.012-23.063-55.612-46.76-82.966-70.648-63.782-55.65-126.743-112.737-186.051-173.961-33.745-34.824-66.061-70.677-98.248-106.634-30.491-34.066-61.486-68.619-95.648-98.926-34.532-30.62-72.331-56.787-114.7-74.284-48.93-20.243-100.9-27.954-153.764-27.954-55.241 0-111.467 8.419-166.25 19.755q-32.895 6.793-66 14.927c-167.678 41.106-335.215 103.6-503.777 121.131a875 875 0 0 1-90.244 4.779c-70.785 0-141.053-9.195-209.655-30-99.235-30.1-188.038-82.654-267.734-148.156-74.922-61.641-141.795-134.288-211.584-204.185-32.932-32.966-66.415-66.052-100.509-98.181-123.647-116.591-259.797-194.915-434.845-235.3a267 267 0 0 0-60.17-6.891c-51.371 0-101.271 14.885-148.777 40.785-127.443 68.84-259.91 188.592-372.434 292.501"/><path id="N" d="M5.016 1548.003c111.637-104.042 242.833-225.2 370.818-292.751 47.026-25.029 96.252-39.473 146.848-39.473a266.2 266.2 0 0 1 62.078 7.357c175.407 41.931 310.156 119.773 433.175 236.335 33.9 32.108 67.265 65.132 100.2 98.031 69.71 69.673 137.07 141.624 212.142 202.727 79.884 64.957 168.5 117.2 267.575 147.082 68.548 20.676 138.674 29.75 209.33 29.75a887 887 0 0 0 89.894-4.682c168.112-17.176 335.6-78.4 502.764-120.19q32.97-8.236 65.778-15.3c56.612-12.169 114.841-21.422 171.99-21.422 50.747 0 100.639 7.295 147.794 26.321 42.472 17.1 80.363 42.973 115.057 73.3 34.315 30.012 65.532 64.278 96.21 98.06 32.387 35.657 64.886 71.222 98.635 105.888 59.308 60.932 121.811 118.244 185.026 174.3 27.121 24.063 54.47 47.972 82.253 71.235 60.958 50.713 125.389 98.439 196.07 128.572 59.22 25.25 121.873 38.69 185.5 38.69a455.8 455.8 0 0 0 138.321-21.6c17.855-5.683 35.54-12.431 53.167-19.755 101.772-42.318 201.323-101.8 300.462-105.758q5.475-.219 10.953-.221a247.6 247.6 0 0 1 60.082 7.241c74.373 18.647 134.288 72.926 191.9 129.093 24.534 23.734 48.171 47.218 70.881 69.285 74.422 72.318 149.11 134.571 221.219 196.728-72.109-62.157-146.8-124.41-221.219-196.728-22.709-22.068-46.347-45.552-70.881-69.285-57.608-56.166-117.523-110.445-191.9-129.093a247.6 247.6 0 0 0-60.082-7.241q-5.48 0-10.953.221c-99.139 3.961-198.69 63.44-300.462 105.758-17.626 7.324-35.311 14.073-53.167 19.755a455.8 455.8 0 0 1-138.321 21.6c-63.624 0-126.276-13.439-185.5-38.69-70.681-30.133-135.113-77.859-196.07-128.572-27.783-23.263-55.133-47.172-82.253-71.235-63.215-56.058-125.718-113.37-185.026-174.3-33.749-34.666-66.248-70.231-98.635-105.888-30.678-33.782-61.895-68.048-96.21-98.06-34.695-30.324-72.585-56.2-115.057-73.3-47.155-19.026-97.047-26.321-147.794-26.321-57.149 0-115.378 9.253-171.99 21.422q-32.789 7.036-65.778 15.3c-167.166 41.785-334.652 103.013-502.764 120.19a887 887 0 0 1-89.894 4.682c-70.656 0-140.783-9.073-209.33-29.75-99.077-29.883-187.692-82.125-267.575-147.082-75.072-61.1-142.432-133.054-212.142-202.727-32.933-32.9-66.294-65.923-100.2-98.031-123.019-116.562-257.768-194.404-433.175-236.335a266.2 266.2 0 0 0-62.078-7.357c-50.6 0-99.822 14.444-146.848 39.473-127.985 67.552-259.181 188.709-370.818 292.751"/><path id="O" d="M4.512 1579.453c110.745-104.172 240.68-226.736 369.2-293 46.54-24.178 95.087-38.178 144.913-38.178a265.6 265.6 0 0 1 63.994 7.841c175.76 43.481 309.115 120.844 431.5 237.372 33.711 32.078 66.956 65.048 99.88 97.877 69.631 69.448 137.479 140.7 212.7 201.265 80.071 64.411 168.5 116.341 267.417 146.015 68.481 20.543 138.474 29.491 209 29.491 29.783 0 59.657-1.6 89.557-4.587 167.658-16.822 335.1-76.78 501.747-119.244q32.864-8.367 65.557-15.677c58.383-13.019 118.573-23.159 177.589-23.159 48.672 0 96.548 6.895 141.962 24.755 42.581 16.71 80.559 42.289 115.416 72.318 34.47 29.712 65.906 63.694 96.772 97.189 32.587 35.353 65.269 70.631 99.026 105.142 59.3 60.641 121.344 118.182 184 174.64 26.887 24.242 53.983 48.359 81.538 71.831 60.345 51.1 124.068 99.156 194.232 130.522 61.628 27.554 127.518 42.66 194.4 42.66a439.3 439.3 0 0 0 129.855-19.593c17.877-5.528 35.565-12.182 53.167-19.468 101.593-42.094 200.194-103.676 299.545-109.729q8.229-.506 16.477-.508a244 244 0 0 1 54.949 6.153c74.88 17.364 135.171 71.039 192.283 127.693 24.268 23.913 47.564 47.855 69.914 70.5 73.373 74.33 146.949 140.037 218.33 205.656-71.381-65.619-144.957-131.326-218.33-205.656-22.35-22.642-45.646-46.584-69.914-70.5-57.111-56.654-117.4-110.329-192.283-127.693a244 244 0 0 0-54.949-6.153q-8.249 0-16.477.508c-99.351 6.053-197.953 67.636-299.545 109.729-17.6 7.286-35.29 13.939-53.167 19.468a439.3 439.3 0 0 1-129.855 19.593c-66.881 0-132.771-15.106-194.4-42.66-70.164-31.366-133.888-79.425-194.232-130.522-27.554-23.471-54.65-47.588-81.538-71.831-62.657-56.458-124.7-114-184-174.64-33.757-34.511-66.439-69.789-99.026-105.142-30.866-33.495-62.3-67.477-96.772-97.189-34.857-30.029-72.835-55.608-115.416-72.318-45.414-17.86-93.29-24.755-141.962-24.755-59.016 0-119.207 10.14-177.589 23.159q-32.676 7.274-65.557 15.677c-166.649 42.464-334.09 102.422-501.747 119.244-29.9 2.991-59.774 4.587-89.557 4.587-70.522 0-140.516-8.949-209-29.491-98.914-29.675-187.346-81.6-267.417-146.015-75.226-60.561-143.074-131.817-212.7-201.265-32.924-32.828-66.169-65.8-99.88-97.877-122.385-116.529-255.74-193.892-431.5-237.372a265.6 265.6 0 0 0-63.994-7.841c-49.826 0-98.373 14-144.913 38.177-128.52 66.265-258.455 188.83-369.2 293.001"/><path id="P" d="M4.004 1610.902c109.858-104.305 238.526-228.273 367.589-293.249 46.043-23.331 93.911-36.9 142.974-36.9a265 265 0 0 1 65.907 8.34c176.11 45.039 308.073 121.911 429.83 238.405 33.52 32.053 66.644 64.969 99.564 97.723 69.552 69.227 137.887 139.783 213.267 199.807 80.263 63.865 168.507 115.482 267.259 144.949 68.423 20.409 138.275 29.237 208.668 29.237 29.662 0 59.42-1.566 89.211-4.5 167.208-16.468 334.6-75.155 500.735-118.3q32.758-8.5 65.336-16.052c60.1-13.89 122.207-24.959 183.043-24.959 46.66 0 92.578 6.511 136.279 23.251 42.681 16.322 80.75 41.6 115.765 71.335 34.629 29.416 66.286 63.111 97.34 96.319 32.787 35.057 65.652 70.048 99.414 104.4 59.3 60.349 120.885 118.115 182.98 174.982 26.65 24.417 53.5 48.747 80.821 72.418 59.729 51.484 122.748 99.876 192.391 132.475 63.882 29.9 132.934 46.8 202.944 46.8a423.3 423.3 0 0 0 121.757-17.751c17.9-5.37 35.586-11.923 53.162-19.181 101.409-41.864 199.061-105.55 298.633-113.7q10.854-.893 21.764-.908a240.6 240.6 0 0 1 50.046 5.182c75.389 16.085 136.059 69.147 192.671 126.3 24 24.092 46.955 48.488 68.947 71.705 72.323 76.343 144.795 145.5 215.443 214.584-70.648-69.085-143.12-138.241-215.443-214.584-21.992-23.217-44.942-47.614-68.947-71.705-56.612-57.15-117.282-110.213-192.671-126.3a240.6 240.6 0 0 0-50.046-5.182q-10.911 0-21.764.908c-99.572 8.149-197.223 71.835-298.633 113.7-17.576 7.257-35.265 13.811-53.162 19.181a423.3 423.3 0 0 1-121.757 17.751c-70.01 0-139.062-16.9-202.944-46.8-69.643-32.6-132.663-80.992-192.391-132.475-27.324-23.671-54.171-48-80.821-72.418-62.095-56.866-123.681-114.632-182.98-174.982-33.762-34.353-66.627-69.343-99.414-104.4-31.054-33.207-62.711-66.9-97.34-96.319-35.015-29.733-73.084-55.012-115.765-71.335-43.7-16.739-89.62-23.251-136.279-23.251-60.836 0-122.939 11.069-183.043 24.959q-32.563 7.517-65.336 16.052c-166.133 43.143-333.528 101.83-500.735 118.3-29.791 2.929-59.549 4.5-89.211 4.5-70.393 0-140.245-8.828-208.668-29.237-98.751-29.466-187-81.083-267.259-144.949-75.38-60.024-143.715-130.58-213.267-199.807-32.92-32.753-66.044-65.669-99.564-97.723-121.757-116.494-253.72-193.366-429.83-238.405a265 265 0 0 0-65.907-8.34c-49.063 0-96.931 13.569-142.974 36.9-129.063 64.976-257.731 188.944-367.589 293.249"/><path id="Q" d="M3.495 1642.347c108.971-104.438 236.368-229.814 365.973-293.496 45.543-22.497 92.74-35.628 141.027-35.628a264.5 264.5 0 0 1 67.831 8.845c176.458 46.601 307.029 122.981 428.169 239.438 33.328 32.028 66.331 64.89 99.251 97.572 69.468 69 138.291 138.862 213.825 198.349 80.45 63.315 168.507 114.624 267.1 143.873 68.369 20.284 138.083 28.991 208.351 28.991 29.541 0 59.178-1.537 88.853-4.4 166.757-16.118 334.107-73.539 499.723-117.353q32.651-8.636 65.115-16.431c61.77-14.773 125.735-26.821 188.346-26.821 44.7 0 88.715 6.141 130.746 21.813 42.781 15.927 80.942 40.915 116.12 70.352 34.782 29.116 66.661 62.524 97.9 95.448 32.987 34.757 66.036 69.46 99.8 103.655 59.3 60.057 120.423 118.048 181.959 175.319 26.413 24.6 53 49.138 80.1 73.014 59.112 51.867 121.418 100.6 190.554 134.425 65.969 32.282 138.108 51.1 211.109 51.1a407.5 407.5 0 0 0 114.029-16.073 529 529 0 0 0 53.162-18.889c101.23-41.644 197.911-107.613 297.721-117.678a258 258 0 0 1 26.821-1.421 238 238 0 0 1 45.372 4.324c75.9 14.806 136.946 67.261 193.063 124.9 23.742 24.271 46.342 49.122 67.98 72.914 71.264 78.358 142.632 150.964 212.546 223.511-69.914-72.547-141.282-145.153-212.546-223.511-21.638-23.792-44.238-48.642-67.98-72.914-56.117-57.641-117.166-110.1-193.062-124.9a238 238 0 0 0-45.372-4.324 258 258 0 0 0-26.821 1.421c-99.81 10.065-196.49 76.034-297.721 117.678a529 529 0 0 1-53.162 18.889 407.5 407.5 0 0 1-114.029 16.073c-73 0-145.14-18.818-211.109-51.1-69.135-33.824-131.442-82.558-190.554-134.425-27.1-23.875-53.692-48.417-80.1-73.014-61.536-57.271-122.66-115.261-181.959-175.319-33.766-34.2-66.815-68.9-99.8-103.655-31.24-32.924-63.119-66.331-97.9-95.448-35.178-29.437-73.339-54.425-116.12-70.352-42.031-15.672-86.045-21.813-130.746-21.813-62.612 0-126.577 12.048-188.346 26.821q-32.451 7.755-65.115 16.431c-165.616 43.814-332.966 101.234-499.723 117.353-29.675 2.866-59.312 4.4-88.853 4.4-70.268 0-139.983-8.707-208.351-28.991-98.593-29.25-186.651-80.558-267.1-143.873-75.534-59.487-144.357-129.347-213.825-198.349-32.92-32.682-65.923-65.544-99.251-97.572-121.141-116.457-251.712-192.837-428.169-239.438a264.5 264.5 0 0 0-67.832-8.845c-48.288 0-95.485 13.131-141.028 35.628-129.604 63.682-257.001 189.058-365.972 293.496"/><path id="R" d="M2.991 1673.796c108.083-104.567 234.214-231.351 364.361-293.742 45.03-21.682 91.548-34.382 139.078-34.382a264.2 264.2 0 0 1 69.761 9.374c176.8 48.167 305.981 124.051 426.488 240.471 33.137 32 66.023 64.807 98.935 97.423 69.39 68.777 138.7 137.941 214.392 196.886 80.638 62.774 168.508 113.766 266.938 142.807 68.3 20.155 137.879 28.733 208.018 28.733 29.425 0 58.945-1.508 88.511-4.308 166.3-15.76 333.611-71.914 498.715-116.407q32.538-8.767 64.89-16.806c63.37-15.677 129.151-28.745 193.491-28.745 42.805 0 84.974 5.782 125.368 20.434 42.885 15.539 81.137 40.231 116.478 69.373 34.936 28.816 67.036 61.936 98.464 94.577 33.187 34.457 66.419 68.872 100.189 102.909 59.3 59.766 119.965 117.982 180.939 175.661 26.179 24.771 52.517 49.526 79.388 73.6 58.5 52.254 120.094 101.326 188.713 136.379 67.889 34.682 143.02 55.541 218.883 55.541a392.7 392.7 0 0 0 106.7-14.535 494 494 0 0 0 53.158-18.6c101.047-41.414 196.778-109.454 296.8-121.648a256 256 0 0 1 31.75-2.012 235 235 0 0 1 40.831 3.541c76.4 13.527 137.833 65.374 193.45 123.506 23.479 24.451 45.734 49.755 67.019 74.122 70.206 80.371 140.47 156.426 209.656 232.439-69.186-76.013-139.45-152.069-209.656-232.439-21.284-24.367-43.539-49.671-67.019-74.122-55.617-58.133-117.045-109.979-193.45-123.506a235 235 0 0 0-40.831-3.541 256 256 0 0 0-31.75 2.012c-100.026 12.194-195.757 80.234-296.8 121.648a494 494 0 0 1-53.158 18.6 392.7 392.7 0 0 1-106.7 14.533c-75.863 0-150.994-20.859-218.883-55.541-68.619-35.053-130.213-84.125-188.713-136.379-26.871-24.075-53.208-48.83-79.388-73.6-60.974-57.679-121.644-115.895-180.939-175.661-33.77-34.036-67-68.452-100.189-102.909-31.428-32.641-63.528-65.761-98.464-94.577-35.34-29.141-73.593-53.833-116.478-69.373-40.394-14.652-82.562-20.434-125.368-20.434-64.341 0-130.122 13.069-193.491 28.745q-32.339 8-64.89 16.806c-165.1 44.493-332.411 100.647-498.715 116.407-29.566 2.8-59.087 4.308-88.511 4.308-70.139 0-139.716-8.578-208.018-28.733-98.43-29.041-186.3-80.033-266.938-142.807-75.688-58.945-145-128.109-214.392-196.886-32.911-32.616-65.8-65.419-98.935-97.423-120.507-116.418-249.688-192.302-426.488-240.469a264.2 264.2 0 0 0-69.761-9.374c-47.53 0-94.048 12.7-139.079 34.382-130.146 62.391-256.277 189.175-364.36 293.742"/><path id="S" d="M2.483 1705.25c107.192-104.705 232.06-232.894 362.744-294 44.518-20.873 90.349-33.1 137.112-33.1a265.4 265.4 0 0 1 71.706 9.869c177.069 50 304.941 125.122 424.814 241.509 32.949 31.978 65.715 64.727 98.622 97.272 69.31 68.552 139.112 137.016 214.954 195.424 80.825 62.228 168.507 112.908 266.78 141.741 68.248 20.022 137.691 28.479 207.705 28.479 29.3 0 58.7-1.483 88.153-4.216 165.85-15.406 333.107-70.289 497.7-115.461q32.426-8.9 64.674-17.176c64.919-16.6 132.475-30.741 198.5-30.741 40.961 0 81.333 5.441 120.123 19.122 42.985 15.148 81.333 39.544 116.832 68.389 35.09 28.517 67.406 61.353 99.026 93.706q50.08 51.236 100.576 102.168c59.295 59.474 119.5 117.915 179.918 176 25.942 24.946 52.029 49.913 78.671 74.193 57.883 52.638 118.707 102.151 186.875 138.329 69.552 37.177 147.548 60.145 226.078 60.145a379.2 379.2 0 0 0 99.943-13.156 465 465 0 0 0 53.159-18.314c100.867-41.185 195.644-111.287 295.892-125.618a254 254 0 0 1 36.52-2.7 232.4 232.4 0 0 1 36.444 2.854c76.914 12.244 138.72 63.482 193.841 122.106 23.213 24.63 45.081 50.426 66.053 75.334 69.01 82.491 138.308 161.887 206.764 241.367-68.456-79.479-137.754-158.875-206.764-241.367-20.972-24.909-42.84-50.7-66.053-75.334-55.121-58.624-116.927-109.862-193.841-122.106a232.4 232.4 0 0 0-36.444-2.854 254 254 0 0 0-36.52 2.7c-100.247 14.331-195.024 84.433-295.892 125.618a465 465 0 0 1-53.159 18.314 379.2 379.2 0 0 1-99.943 13.156c-78.53 0-156.526-22.967-226.078-60.145-68.168-36.178-128.992-85.691-186.875-138.329-26.642-24.279-52.729-49.246-78.671-74.193-60.416-58.087-120.623-116.528-179.918-176q-50.661-50.817-100.576-102.168c-31.62-32.353-63.936-65.19-99.026-93.706-35.5-28.845-73.847-53.242-116.832-68.389-38.79-13.681-79.163-19.122-120.123-19.122-66.028 0-133.583 14.144-198.5 30.741q-32.233 8.23-64.674 17.176c-164.591 45.172-331.849 100.056-497.7 115.461-29.454 2.733-58.853 4.216-88.153 4.216-70.014 0-139.458-8.457-207.705-28.479-98.273-28.833-185.955-79.513-266.78-141.741-75.842-58.407-145.644-126.874-214.952-195.423-32.907-32.545-65.673-65.294-98.622-97.272-119.878-116.387-247.747-191.513-424.816-241.51a265.4 265.4 0 0 0-71.706-9.869c-46.764 0-92.594 12.227-137.112 33.1-130.684 61.106-255.552 189.295-362.744 294"/><path id="T" d="M1.975 1736.691c106.3-104.829 229.9-234.426 361.132-294.237 43.989-20.081 89.149-31.9 135.15-31.9a264.5 264.5 0 0 1 73.643 10.44c177.439 51.45 303.9 126.193 423.143 242.542 32.758 31.958 65.407 64.648 98.31 97.123 69.227 68.327 139.516 136.1 215.513 193.966 81.017 61.678 168.511 112.045 266.621 140.666 68.2 19.9 137.512 28.229 207.406 28.229 29.175 0 58.445-1.45 87.778-4.12 165.4-15.056 332.611-68.669 496.686-114.52q32.32-9.03 64.453-17.551c66.4-17.526 135.679-32.791 203.347-32.791 39.182 0 77.822 5.12 115.049 17.872 43.085 14.756 81.525 38.857 117.187 67.406 35.244 28.216 67.785 60.766 99.589 92.836q50.38 50.786 100.968 101.418 88.937 88.78 178.893 176.344c25.7 25.125 51.542 50.3 77.955 74.785 57.266 53.025 117.4 102.83 185.034 140.282 71.214 39.573 152.06 64.832 233.173 64.832a365 365 0 0 0 93.293-11.865 437 437 0 0 0 53.155-18.022c100.689-40.96 194.512-113.129 294.976-129.593a253 253 0 0 1 41.156-3.457 230 230 0 0 1 32.2 2.245c77.426 10.965 139.612 61.595 194.228 120.71 22.951 24.809 44.489 51.042 65.09 76.542 68 84.449 136.145 167.354 203.873 250.295-67.728-82.941-135.871-165.845-203.873-250.295-20.6-25.5-42.139-51.734-65.09-76.542-54.616-59.116-116.8-109.745-194.228-120.71a230 230 0 0 0-32.2-2.245 253 253 0 0 0-41.156 3.457c-100.464 16.464-194.287 88.633-294.976 129.593a437 437 0 0 1-53.155 18.022 365 365 0 0 1-93.293 11.865c-81.113 0-161.958-25.259-233.173-64.832-67.635-37.453-127.768-87.257-185.034-140.282-26.412-24.48-52.25-49.659-77.955-74.785q-89.78-87.73-178.893-176.344-50.675-50.574-100.969-101.416c-31.8-32.07-64.344-64.619-99.589-92.836-35.661-28.55-74.1-52.65-117.187-67.406-37.227-12.752-75.867-17.872-115.049-17.872-67.668 0-136.945 15.265-203.347 32.791q-32.121 8.473-64.453 17.551c-164.075 45.851-331.287 99.464-496.686 114.52-29.333 2.671-58.6 4.12-87.778 4.12-69.893 0-139.208-8.332-207.406-28.229-98.11-28.621-185.6-78.988-266.621-140.666-76-57.87-146.286-125.639-215.513-193.966-32.9-32.474-65.552-65.165-98.31-97.123-119.243-116.351-245.703-191.094-423.142-242.544a264.5 264.5 0 0 0-73.643-10.44c-46 0-91.161 11.819-135.15 31.9-131.232 59.811-254.832 189.408-361.132 294.237"/><path id="U" d="M1.471 1768.14c159.38-158.692 357.424-376.913 568.288-314.168 177.812 52.908 302.857 127.261 421.472 243.575 173.981 170.6 347.026 361.349 580.531 429.076 277.7 80.546 572.633-30.829 854.414-107.554 104.513-28.458 216.425-52.063 318.163-18.222 85.875 28.562 153.327 94.448 217.7 158.388q139.611 138.678 279.219 277.361c80.592 80.05 162.325 160.988 260.439 217.608s216.033 87.2 326.9 58.945c146.39-37.3 272.2-172.365 420.952-153.88 110.6 13.748 190.25 108.725 258.739 197.066l200.985 259.222"/><clipPath id="a"><path fill="none" stroke="#707070" d="M0 146h2881v1787H0z"/></clipPath><clipPath id="b"><path fill="none" stroke="#7c3aed" stroke-opacity="0.08" d="M0 0h5224.929v3016.836H0z"/></clipPath></defs><g fill="none" stroke="#7c3aed" stroke-opacity="0.08" clip-path="url(#a)" transform="translate(0 -146)"><g clip-path="url(#b)" transform="rotate(8 933.01 -6348.281)"><use href="#c"/><use href="#d"/><use href="#e"/><use href="#f"/><use href="#g"/><use href="#h"/><use href="#i"/><use href="#j"/><use href="#k"/><use href="#l"/><use href="#m"/><use href="#n"/><use href="#o"/><use href="#p"/><use href="#q"/><use href="#r"/><use href="#s"/><use href="#t"/><use href="#u"/><use href="#v"/><use href="#w"/><use href="#x"/><use href="#y"/><use href="#z"/><use href="#A"/><use href="#B"/><use href="#C"/><use href="#D"/><use href="#E"/><use href="#F"/><use href="#G"/><use href="#H"/><use href="#I"/><use href="#J"/><use href="#K"/><use href="#L"/><use href="#M"/><use href="#N"/><use href="#O"/><use href="#P"/><use href="#Q"/><use href="#R"/><use href="#S"/><use href="#T"/><use href="#U"/></g><g clip-path="url(#b)" transform="rotate(8 10995.09 -4667.659)"><use href="#c"/><use href="#d"/><use href="#e"/><use href="#f"/><use href="#g"/><use href="#h"/><use href="#i"/><use href="#j"/><use href="#k"/><use href="#l"/><use href="#m"/><use href="#n"/><use href="#o"/><use href="#p"/><use href="#q"/><use href="#r"/><use href="#s"/><use href="#t"/><use href="#u"/><use href="#v"/><use href="#w"/><use href="#x"/><use href="#y"/><use href="#z"/><use href="#A"/><use href="#B"/><use href="#C"/><use href="#D"/><use href="#E"/><use href="#F"/><use href="#G"/><use href="#H"/><use href="#I"/><use href="#J"/><use href="#K"/><use href="#L"/><use href="#M"/><use href="#N"/><use href="#O"/><use href="#P"/><use href="#Q"/><use href="#R"/><use href="#S"/><use href="#T"/><use href="#U"/></g></g></svg>